<svg width="1371" height="502" xmlns="http://www.w3.org/2000/svg" xmlns:xlink="http://www.w3.org/1999/xlink" xml:space="preserve" overflow="hidden"><defs><filter id="fx0" x="-10%" y="-10%" width="120%" height="120%" filterUnits="userSpaceOnUse" primitiveUnits="userSpaceOnUse"><feComponentTransfer color-interpolation-filters="sRGB"><feFuncR type="discrete" tableValues="0 0"/><feFuncG type="discrete" tableValues="0 0"/><feFuncB type="discrete" tableValues="0 0"/><feFuncA type="linear" slope="0.278431" intercept="0"/></feComponentTransfer><feGaussianBlur stdDeviation="6.49306 6.50596"/></filter><clipPath id="clip1"><rect x="1966" y="1394" width="1371" height="502"/></clipPath><clipPath id="clip2"><rect x="-6.5" y="-6.51294" width="354" height="136.02"/></clipPath><clipPath id="clip3"><rect x="0" y="0" width="343" height="126"/></clipPath><linearGradient x1="2704.74" y1="1411.71" x2="2594.46" y2="1869.12" gradientUnits="userSpaceOnUse" spreadMethod="reflect" id="fill4"><stop offset="0" stop-color="#50E6FF"/><stop offset="0.00510204" stop-color="#4FE5FE"/><stop offset="0.0102041" stop-color="#4FE5FE"/><stop offset="0.0153061" stop-color="#4FE5FE"/><stop offset="0.0204082" stop-color="#4FE5FE"/><stop offset="0.0255102" stop-color="#4FE5FE"/><stop offset="0.0306122" stop-color="#4FE5FE"/><stop offset="0.0357143" stop-color="#4FE5FE"/><stop offset="0.0408163" stop-color="#4FE5FE"/><stop offset="0.0459184" stop-color="#4FE5FE"/><stop offset="0.0510204" stop-color="#4FE5FE"/><stop offset="0.0561224" stop-color="#4FE5FE"/><stop offset="0.0612245" stop-color="#4FE4FE"/><stop offset="0.0663265" stop-color="#4FE4FE"/><stop offset="0.0714286" stop-color="#4FE4FE"/><stop offset="0.0765306" stop-color="#4FE4FE"/><stop offset="0.0816327" stop-color="#4FE4FE"/><stop offset="0.0867347" stop-color="#4FE3FD"/><stop offset="0.0918367" stop-color="#4FE3FD"/><stop offset="0.0969388" stop-color="#4FE3FD"/><stop offset="0.102041" stop-color="#4FE3FD"/><stop offset="0.107143" stop-color="#4FE3FD"/><stop offset="0.112245" stop-color="#4FE2FD"/><stop offset="0.117347" stop-color="#4FE2FD"/><stop offset="0.122449" stop-color="#4FE2FC"/><stop offset="0.127551" stop-color="#4EE1FC"/><stop offset="0.132653" stop-color="#4EE1FC"/><stop offset="0.137755" stop-color="#4EE1FC"/><stop offset="0.142857" stop-color="#4EE0FC"/><stop offset="0.147959" stop-color="#4EE0FB"/><stop offset="0.153061" stop-color="#4EE0FB"/><stop offset="0.158163" stop-color="#4EDFFB"/><stop offset="0.163265" stop-color="#4EDFFB"/><stop offset="0.168367" stop-color="#4EDFFB"/><stop offset="0.173469" stop-color="#4EDEFA"/><stop offset="0.178571" stop-color="#4EDEFA"/><stop offset="0.183673" stop-color="#4DDDFA"/><stop offset="0.188776" stop-color="#4DDDFA"/><stop offset="0.193878" stop-color="#4DDCF9"/><stop offset="0.19898" stop-color="#4DDCF9"/><stop offset="0.204082" stop-color="#4DDBF9"/><stop offset="0.209184" stop-color="#4DDBF9"/><stop offset="0.214286" stop-color="#4DDBF8"/><stop offset="0.219388" stop-color="#4DDAF8"/><stop offset="0.22449" stop-color="#4DDAF8"/><stop offset="0.229592" stop-color="#4CD9F8"/><stop offset="0.234694" stop-color="#4CD8F7"/><stop offset="0.239796" stop-color="#4CD8F7"/><stop offset="0.244898" stop-color="#4CD7F7"/><stop offset="0.25" stop-color="#4CD7F6"/><stop offset="0.255102" stop-color="#4CD6F6"/><stop offset="0.260204" stop-color="#4CD6F6"/><stop offset="0.265306" stop-color="#4CD5F5"/><stop offset="0.270408" stop-color="#4BD5F5"/><stop offset="0.27551" stop-color="#4BD4F5"/><stop offset="0.280612" stop-color="#4BD3F4"/><stop offset="0.285714" stop-color="#4BD3F4"/><stop offset="0.290816" stop-color="#4BD2F4"/><stop offset="0.295918" stop-color="#4BD1F3"/><stop offset="0.30102" stop-color="#4AD1F3"/><stop offset="0.306122" stop-color="#4AD0F3"/><stop offset="0.311224" stop-color="#4ACFF2"/><stop offset="0.316327" stop-color="#4ACFF2"/><stop offset="0.321429" stop-color="#4ACEF2"/><stop offset="0.326531" stop-color="#4ACDF1"/><stop offset="0.331633" stop-color="#49CDF1"/><stop offset="0.336735" stop-color="#49CCF0"/><stop offset="0.341837" stop-color="#49CBF0"/><stop offset="0.346939" stop-color="#49CAF0"/><stop offset="0.352041" stop-color="#49CAEF"/><stop offset="0.357143" stop-color="#49C9EF"/><stop offset="0.362245" stop-color="#48C8EE"/><stop offset="0.367347" stop-color="#48C7EE"/><stop offset="0.372449" stop-color="#48C7ED"/><stop offset="0.377551" stop-color="#48C6ED"/><stop offset="0.382653" stop-color="#48C5ED"/><stop offset="0.387755" stop-color="#47C4EC"/><stop offset="0.392857" stop-color="#47C3EC"/><stop offset="0.397959" stop-color="#47C2EB"/><stop offset="0.403061" stop-color="#47C2EB"/><stop offset="0.408163" stop-color="#47C1EA"/><stop offset="0.413265" stop-color="#46C0EA"/><stop offset="0.418367" stop-color="#46BFE9"/><stop offset="0.423469" stop-color="#46BEE9"/><stop offset="0.428571" stop-color="#46BDE8"/><stop offset="0.433673" stop-color="#45BCE8"/><stop offset="0.438776" stop-color="#45BBE7"/><stop offset="0.443878" stop-color="#45BBE7"/><stop offset="0.44898" stop-color="#45BAE6"/><stop offset="0.454082" stop-color="#45B9E6"/><stop offset="0.459184" stop-color="#44B8E5"/><stop offset="0.464286" stop-color="#44B7E5"/><stop offset="0.469388" stop-color="#44B6E4"/><stop offset="0.47449" stop-color="#44B5E4"/><stop offset="0.479592" stop-color="#43B4E3"/><stop offset="0.484694" stop-color="#43B3E2"/><stop offset="0.489796" stop-color="#43B2E2"/><stop offset="0.494898" stop-color="#43B1E1"/><stop offset="0.5" stop-color="#42B0E1"/><stop offset="0.505102" stop-color="#42AFE0"/><stop offset="0.510204" stop-color="#42AEE0"/><stop offset="0.515306" stop-color="#42ADDF"/><stop offset="0.520408" stop-color="#41ACDE"/><stop offset="0.52551" stop-color="#41ABDE"/><stop offset="0.530612" stop-color="#41A9DD"/><stop offset="0.535714" stop-color="#41A8DD"/><stop offset="0.540816" stop-color="#40A7DC"/><stop offset="0.545918" stop-color="#40A6DB"/><stop offset="0.55102" stop-color="#40A5DB"/><stop offset="0.556122" stop-color="#40A4DA"/><stop offset="0.561224" stop-color="#3FA3DA"/><stop offset="0.566327" stop-color="#3FA2D9"/><stop offset="0.571429" stop-color="#3FA1D8"/><stop offset="0.576531" stop-color="#3E9FD8"/><stop offset="0.581633" stop-color="#3E9ED7"/><stop offset="0.586735" stop-color="#3E9DD6"/><stop offset="0.591837" stop-color="#3E9CD6"/><stop offset="0.596939" stop-color="#3D9BD5"/><stop offset="0.602041" stop-color="#3D99D4"/><stop offset="0.607143" stop-color="#3D98D4"/><stop offset="0.612245" stop-color="#3C97D3"/><stop offset="0.617347" stop-color="#3C96D2"/><stop offset="0.622449" stop-color="#3C95D2"/><stop offset="0.627551" stop-color="#3B93D1"/><stop offset="0.632653" stop-color="#3B92D0"/><stop offset="0.637755" stop-color="#3B91D0"/><stop offset="0.642857" stop-color="#3B8FCF"/><stop offset="0.647959" stop-color="#3A8ECE"/><stop offset="0.653061" stop-color="#3A8DCD"/><stop offset="0.658163" stop-color="#3A8CCD"/><stop offset="0.663265" stop-color="#398ACC"/><stop offset="0.668367" stop-color="#3989CB"/><stop offset="0.673469" stop-color="#3988CB"/><stop offset="0.678571" stop-color="#3886CA"/><stop offset="0.683673" stop-color="#3885C9"/><stop offset="0.688776" stop-color="#3884C8"/><stop offset="0.693878" stop-color="#3782C8"/><stop offset="0.69898" stop-color="#3781C7"/><stop offset="0.704082" stop-color="#377FC6"/><stop offset="0.709184" stop-color="#367EC5"/><stop offset="0.714286" stop-color="#367DC4"/><stop offset="0.719388" stop-color="#367BC4"/><stop offset="0.72449" stop-color="#357AC3"/><stop offset="0.729592" stop-color="#3578C2"/><stop offset="0.734694" stop-color="#3577C1"/><stop offset="0.739796" stop-color="#3476C1"/><stop offset="0.744898" stop-color="#3474C0"/><stop offset="0.75" stop-color="#3473BF"/><stop offset="0.755102" stop-color="#3371BE"/><stop offset="0.760204" stop-color="#3370BD"/><stop offset="0.765306" stop-color="#326EBC"/><stop offset="0.770408" stop-color="#326DBC"/><stop offset="0.77551" stop-color="#326BBB"/><stop offset="0.780612" stop-color="#316ABA"/><stop offset="0.785714" stop-color="#3168B9"/><stop offset="0.790816" stop-color="#3167B8"/><stop offset="0.795918" stop-color="#3065B7"/><stop offset="0.80102" stop-color="#3064B7"/><stop offset="0.806122" stop-color="#2F62B6"/><stop offset="0.811224" stop-color="#2F60B5"/><stop offset="0.816327" stop-color="#2F5FB4"/><stop offset="0.821429" stop-color="#2E5DB3"/><stop offset="0.826531" stop-color="#2E5CB2"/><stop offset="0.831633" stop-color="#2E5AB1"/><stop offset="0.836735" stop-color="#2D58B0"/><stop offset="0.841837" stop-color="#2D57B0"/><stop offset="0.846939" stop-color="#2C55AF"/><stop offset="0.852041" stop-color="#2C54AE"/><stop offset="0.857143" stop-color="#2C52AD"/><stop offset="0.862245" stop-color="#2B50AC"/><stop offset="0.867347" stop-color="#2B4FAB"/><stop offset="0.872449" stop-color="#2A4DAA"/><stop offset="0.877551" stop-color="#2A4BA9"/><stop offset="0.882653" stop-color="#2A4AA8"/><stop offset="0.887755" stop-color="#2948A7"/><stop offset="0.892857" stop-color="#2946A6"/><stop offset="0.897959" stop-color="#2845A5"/><stop offset="0.903061" stop-color="#2843A4"/><stop offset="0.908163" stop-color="#2741A4"/><stop offset="0.913265" stop-color="#273FA3"/><stop offset="0.918367" stop-color="#273EA2"/><stop offset="0.923469" stop-color="#263CA1"/><stop offset="0.928571" stop-color="#263AA0"/><stop offset="0.933673" stop-color="#25389F"/><stop offset="0.938776" stop-color="#25379E"/><stop offset="0.943878" stop-color="#24359D"/><stop offset="0.94898" stop-color="#24339C"/><stop offset="0.954082" stop-color="#24319B"/><stop offset="0.959184" stop-color="#232F9A"/><stop offset="0.964286" stop-color="#232D99"/><stop offset="0.969388" stop-color="#222C98"/><stop offset="0.97449" stop-color="#222A97"/><stop offset="0.979592" stop-color="#212896"/><stop offset="0.984694" stop-color="#212695"/><stop offset="0.989796" stop-color="#202494"/><stop offset="0.994898" stop-color="#202293"/><stop offset="1" stop-color="#202192"/></linearGradient></defs><g clip-path="url(#clip1)" transform="translate(-1966 -1394)"><g clip-path="url(#clip2)" filter="url(#fx0)" transform="matrix(4 0 0 3.99206 1965 1393)"><g clip-path="url(#clip3)"><path d="M19.8102 24.7593C19.8102 22.0477 22.004 19.8496 24.7102 19.8496L318.41 19.8496C321.116 19.8496 323.31 22.0477 323.31 24.7593L323.31 101.361C323.31 104.073 321.116 106.271 318.41 106.271L24.7102 106.271C22.004 106.271 19.8102 104.073 19.8102 101.361Z" fill="#FFFFFF" fill-rule="evenodd" fill-opacity="0.890196"/></g></g><path d="M2041 1488.6C2041 1477.78 2049.78 1469 2060.6 1469L3235.4 1469C3246.22 1469 3255 1477.78 3255 1488.6L3255 1794.4C3255 1805.22 3246.22 1814 3235.4 1814L2060.6 1814C2049.78 1814 2041 1805.22 2041 1794.4Z" fill="#FFFFFF" fill-rule="evenodd" fill-opacity="0.890196"/><path d="M2700.34 1642.73C2695.81 1642.73 2692.11 1644.82 2689.25 1649 2686.39 1653.17 2684.96 1658.74 2684.96 1665.71 2684.96 1679.98 2689.89 1687.12 2699.75 1687.12 2704.42 1687.12 2708.15 1685.19 2710.95 1681.35 2713.74 1677.5 2715.14 1671.89 2715.14 1664.53L2715.14 1661.87C2715.14 1655.82 2713.81 1651.12 2711.14 1647.76 2708.48 1644.41 2704.88 1642.73 2700.34 1642.73ZM2320.74 1642.73C2310.22 1642.73 2304.96 1649.93 2304.96 1664.33 2304.96 1679.52 2310.28 1687.12 2320.93 1687.12 2331.32 1687.12 2336.52 1679.19 2336.52 1663.35 2336.52 1649.6 2331.26 1642.73 2320.74 1642.73ZM3013.71 1637.41C3010.22 1637.41 3007.3 1639 3004.93 1642.19 3002.56 1645.38 3001.18 1649.6 3000.79 1654.86L3026.23 1654.86C3026.23 1643.23 3022.06 1637.41 3013.71 1637.41ZM2393.6 1614.42 2435.62 1614.42 2435.62 1672.22C2435.62 1682.15 2439.33 1687.12 2446.76 1687.12 2450.84 1687.12 2453.92 1685.77 2455.99 1683.07 2458.06 1680.38 2459.09 1676.56 2459.09 1671.63L2459.09 1614.42 2501.11 1614.42 2501.11 1715.42 2459.09 1715.42 2459.09 1699.84 2458.7 1699.84C2455.21 1704.64 2452.07 1708.16 2449.28 1710.39 2446.49 1712.63 2443.33 1714.44 2439.81 1715.82 2436.29 1717.2 2432.2 1717.89 2427.53 1717.89 2416.48 1717.89 2408.07 1714.31 2402.28 1707.14 2396.49 1699.97 2393.6 1689.39 2393.6 1675.38ZM3013.9 1611.96C3024.36 1611.96 3033.3 1614 3040.73 1618.07 3048.16 1622.15 3053.8 1627.87 3057.65 1635.24 3061.49 1642.6 3063.42 1651.21 3063.42 1661.08L3063.42 1676.86 3000.98 1676.86C3001.71 1681.2 3004.21 1684.6 3008.48 1687.07 3012.75 1689.53 3018.41 1690.77 3025.44 1690.77 3035.24 1690.77 3044.51 1688.89 3053.26 1685.14L3053.26 1711.78C3043.07 1715.85 3030.7 1717.89 3016.17 1717.89 2998.55 1717.89 2984.84 1713.39 2975.04 1704.38 2965.25 1695.37 2960.35 1682.97 2960.35 1667.19 2960.35 1656.34 2962.5 1646.78 2966.81 1638.49 2971.11 1630.21 2977.49 1623.71 2985.94 1619.01 2994.39 1614.31 3003.71 1611.96 3013.9 1611.96ZM2595.15 1611.96C2617.25 1611.96 2628.29 1625.9 2628.29 1653.78L2628.29 1715.42 2586.28 1715.42 2586.28 1660.29C2586.28 1654.04 2585.34 1649.55 2583.47 1646.83 2581.59 1644.1 2578.55 1642.73 2574.34 1642.73 2570.73 1642.73 2567.9 1644.15 2565.86 1646.97 2563.82 1649.8 2562.8 1653.42 2562.8 1657.82L2562.8 1715.42 2520.79 1715.42 2520.79 1614.42 2562.8 1614.42 2562.8 1630.21 2563.2 1630.21C2566.55 1624.42 2571.05 1619.93 2576.71 1616.74 2582.36 1613.55 2588.51 1611.96 2595.15 1611.96ZM2320.74 1611.96C2332.7 1611.96 2343.08 1614.16 2351.86 1618.57 2360.63 1622.97 2367.37 1629.09 2372.08 1636.91 2376.78 1644.74 2379.13 1653.48 2379.13 1663.15 2379.13 1680.18 2373.98 1693.56 2363.69 1703.29 2353.4 1713.02 2339.02 1717.89 2320.54 1717.89 2302.19 1717.89 2287.91 1713.14 2277.68 1703.64 2267.46 1694.14 2262.35 1681.03 2262.35 1664.33 2262.35 1653.61 2264.75 1644.31 2269.55 1636.42 2274.35 1628.53 2281.19 1622.48 2290.06 1618.27 2298.94 1614.06 2309.16 1611.96 2320.74 1611.96ZM2878.24 1604.56 2878.24 1639.48 2887.81 1639.48C2900.04 1639.48 2906.15 1633.69 2906.15 1622.12 2906.15 1616.33 2904.48 1611.96 2901.12 1609 2897.77 1606.04 2892.84 1604.56 2886.33 1604.56ZM3127.89 1583.16 3127.89 1614.42 3148.9 1614.42 3148.9 1643.52 3127.89 1643.52 3127.89 1673.8C3127.89 1682.68 3131.41 1687.12 3138.44 1687.12 3141.73 1687.12 3145.22 1686.39 3148.9 1684.95L3148.9 1714.04C3146.99 1714.96 3143.87 1715.84 3139.53 1716.66 3135.19 1717.48 3129.96 1717.89 3123.85 1717.89 3112.14 1717.89 3102.99 1714.67 3096.38 1708.22 3089.77 1701.78 3086.46 1692.61 3086.46 1680.71L3086.46 1643.52 3070.58 1643.52 3070.58 1614.42 3086.46 1614.42 3086.46 1594.6ZM2835.63 1573.98 2893.63 1573.98C2913.55 1573.98 2928.13 1577.77 2937.37 1585.33 2946.61 1592.89 2951.23 1604.66 2951.23 1620.64 2951.23 1630.3 2948.78 1638.89 2943.88 1646.38 2938.98 1653.88 2932 1659.68 2922.92 1663.79 2913.85 1667.9 2903.29 1669.95 2891.26 1669.95L2878.24 1669.95 2878.24 1715.42 2835.63 1715.42ZM2161.63 1573.98 2250.3 1573.98 2250.3 1607.32 2204.24 1607.32 2204.24 1632.77 2246.26 1632.77 2246.26 1666.11 2204.24 1666.11 2204.24 1715.42 2161.63 1715.42ZM2714.25 1565.9 2756.27 1565.9 2756.27 1715.42 2714.25 1715.42 2714.25 1703.69 2713.86 1703.69C2710.5 1708.09 2706.13 1711.56 2700.74 1714.09 2695.35 1716.62 2690.02 1717.89 2684.76 1717.89 2676.14 1717.89 2668.55 1715.77 2661.97 1711.53 2655.4 1707.29 2650.48 1701.35 2647.23 1693.73 2643.97 1686.1 2642.35 1677.09 2642.35 1666.7 2642.35 1655.98 2644.29 1646.48 2648.17 1638.19 2652.05 1629.91 2657.5 1623.47 2664.54 1618.86 2671.57 1614.26 2679.47 1611.96 2688.21 1611.96 2692.35 1611.96 2696.18 1612.55 2699.7 1613.73 2703.22 1614.92 2706.28 1616.51 2708.87 1618.52 2711.47 1620.52 2713.13 1622.51 2713.86 1624.48L2714.25 1624.48Z" fill="url(#fill4)" fill-rule="evenodd"/><text fill="#000000" fill-opacity="0" font-family="Arial,Arial_MSFontService,sans-serif" font-size="151.993" x="2161.63" y="1698.89">Found Pet</text><path d="M2263 1670C2263 1700.93 2288.3 1726 2319.5 1726 2350.7 1726 2376 1700.93 2376 1670 2376 1639.07 2350.7 1614 2319.5 1614 2288.3 1614 2263 1639.07 2263 1670Z" fill="#43B0E1" fill-rule="evenodd"/><path d="M2257 1669.99C2257 1704.23 2284.83 1731.99 2319.17 1731.99 2332.14 1731.99 2344.19 1728.02 2354.15 1721.25 2352.6 1728.09 2354.49 1735.55 2359.84 1740.88L2377.82 1758.81C2386.1 1767.06 2399.52 1767.06 2407.79 1758.81 2416.07 1750.56 2416.07 1737.18 2407.79 1728.92L2389.81 1710.99C2384.51 1705.71 2377.1 1703.81 2370.29 1705.29 2377.26 1695.27 2381.34 1683.11 2381.34 1669.99 2381.34 1635.76 2353.51 1608 2319.17 1608 2284.83 1608 2257 1635.76 2257 1669.99ZM2370.04 1669.99C2370.04 1698.01 2347.26 1720.71 2319.17 1720.71 2291.08 1720.71 2268.3 1698.01 2268.3 1669.99 2268.3 1641.98 2291.08 1619.27 2319.17 1619.27 2347.26 1619.27 2370.04 1641.98 2370.04 1669.99Z" fill="#533566" fill-rule="evenodd"/><path d="M2350.03 1640.33C2353.23 1645.65 2352.45 1651.83 2348.29 1654.13 2344.14 1656.44 2338.17 1653.99 2334.97 1648.67 2331.77 1643.35 2332.55 1637.17 2336.71 1634.87 2340.86 1632.56 2346.83 1635.01 2350.03 1640.33Z" fill="#FFFFFF" fill-rule="evenodd"/></g></svg>