<svg width="1297" height="876" xmlns="http://www.w3.org/2000/svg" xmlns:xlink="http://www.w3.org/1999/xlink" xml:space="preserve" overflow="hidden"><defs><filter id="fx0" x="-10%" y="-10%" width="120%" height="120%" filterUnits="userSpaceOnUse" primitiveUnits="userSpaceOnUse"><feComponentTransfer color-interpolation-filters="sRGB"><feFuncR type="discrete" tableValues="0 0"/><feFuncG type="discrete" tableValues="0 0"/><feFuncB type="discrete" tableValues="0 0"/><feFuncA type="linear" slope="0.278431" intercept="0"/></feComponentTransfer><feGaussianBlur stdDeviation="6.49306 6.49306"/></filter><filter id="fx1" x="-10%" y="-10%" width="120%" height="120%" filterUnits="userSpaceOnUse" primitiveUnits="userSpaceOnUse"><feComponentTransfer color-interpolation-filters="sRGB"><feFuncR type="discrete" tableValues="0 0"/><feFuncG type="discrete" tableValues="0 0"/><feFuncB type="discrete" tableValues="0 0"/><feFuncA type="linear" slope="0.278431" intercept="0"/></feComponentTransfer><feGaussianBlur stdDeviation="6.49306 6.51892"/></filter><filter id="fx2" x="-10%" y="-10%" width="120%" height="120%" filterUnits="userSpaceOnUse" primitiveUnits="userSpaceOnUse"><feComponentTransfer color-interpolation-filters="sRGB"><feFuncR type="discrete" tableValues="0 0"/><feFuncG type="discrete" tableValues="0 0"/><feFuncB type="discrete" tableValues="0 0"/><feFuncA type="linear" slope="0.278431" intercept="0"/></feComponentTransfer><feGaussianBlur stdDeviation="6.49306 6.53016"/></filter><filter id="fx3" x="-10%" y="-10%" width="120%" height="120%" filterUnits="userSpaceOnUse" primitiveUnits="userSpaceOnUse"><feComponentTransfer color-interpolation-filters="sRGB"><feFuncR type="discrete" tableValues="0 0"/><feFuncG type="discrete" tableValues="0 0"/><feFuncB type="discrete" tableValues="0 0"/><feFuncA type="linear" slope="0.278431" intercept="0"/></feComponentTransfer><feGaussianBlur stdDeviation="6.51421 6.47332"/></filter><filter id="fx4" x="-10%" y="-10%" width="120%" height="120%" filterUnits="userSpaceOnUse" primitiveUnits="userSpaceOnUse"><feComponentTransfer color-interpolation-filters="sRGB"><feFuncR type="discrete" tableValues="0 0"/><feFuncG type="discrete" tableValues="0 0"/><feFuncB type="discrete" tableValues="0 0"/><feFuncA type="linear" slope="0.278431" intercept="0"/></feComponentTransfer><feGaussianBlur stdDeviation="6.49306 6.51367"/></filter><filter id="fx5" x="-10%" y="-10%" width="120%" height="120%" filterUnits="userSpaceOnUse" primitiveUnits="userSpaceOnUse"><feComponentTransfer color-interpolation-filters="sRGB"><feFuncR type="discrete" tableValues="0 0"/><feFuncG type="discrete" tableValues="0 0"/><feFuncB type="discrete" tableValues="0 0"/><feFuncA type="linear" slope="0.278431" intercept="0"/></feComponentTransfer><feGaussianBlur stdDeviation="6.49306 6.4803"/></filter><filter id="fx6" x="-10%" y="-10%" width="120%" height="120%" filterUnits="userSpaceOnUse" primitiveUnits="userSpaceOnUse"><feComponentTransfer color-interpolation-filters="sRGB"><feFuncR type="discrete" tableValues="0 0"/><feFuncG type="discrete" tableValues="0 0"/><feFuncB type="discrete" tableValues="0 0"/><feFuncA type="linear" slope="0.278431" intercept="0"/></feComponentTransfer><feGaussianBlur stdDeviation="6.51913 6.4803"/></filter><clipPath id="clip7"><rect x="493" y="774" width="1297" height="876"/></clipPath><clipPath id="clip8"><rect x="-6.5" y="-6.5" width="101" height="86"/></clipPath><clipPath id="clip9"><rect x="0" y="0" width="88" height="75"/></clipPath><clipPath id="clip10"><rect x="1186" y="1428" width="133" height="134"/></clipPath><clipPath id="clip11"><rect x="1186" y="1428" width="133" height="134"/></clipPath><clipPath id="clip12"><rect x="1186" y="1428" width="133" height="134"/></clipPath><clipPath id="clip13"><rect x="-6.5" y="-6.52588" width="336" height="136.04"/></clipPath><clipPath id="clip14"><rect x="0" y="0" width="323" height="126"/></clipPath><clipPath id="clip15"><rect x="-6.5" y="-6.53714" width="101" height="101.074"/></clipPath><clipPath id="clip16"><rect x="0" y="0" width="88" height="88"/></clipPath><clipPath id="clip17"><rect x="1169" y="1232" width="162" height="161"/></clipPath><clipPath id="clip18"><rect x="1169" y="1232" width="162" height="161"/></clipPath><clipPath id="clip19"><rect x="1169" y="1232" width="162" height="161"/></clipPath><clipPath id="clip20"><rect x="-6.52118" y="-6.48022" width="90.0423" height="92.9666"/></clipPath><clipPath id="clip21"><rect x="0" y="0" width="77" height="82"/></clipPath><clipPath id="clip22"><rect x="573" y="1413" width="140" height="141"/></clipPath><clipPath id="clip23"><rect x="573" y="1413" width="140" height="141"/></clipPath><clipPath id="clip24"><rect x="573" y="1413" width="140" height="141"/></clipPath><clipPath id="clip25"><rect x="-6.5" y="-6.52063" width="86" height="90.0349"/></clipPath><clipPath id="clip26"><rect x="0" y="0" width="76" height="79"/></clipPath><clipPath id="clip27"><rect x="590" y="1239" width="110" height="109"/></clipPath><clipPath id="clip28"><rect x="590" y="1239" width="110" height="109"/></clipPath><clipPath id="clip29"><rect x="590" y="1239" width="110" height="109"/></clipPath><linearGradient x1="1198.03" y1="790.766" x2="1079.35" y2="1243.67" gradientUnits="userSpaceOnUse" spreadMethod="reflect" id="fill30"><stop offset="0" stop-color="#50E6FF"/><stop offset="0.00510204" stop-color="#4FE5FE"/><stop offset="0.0102041" stop-color="#4FE5FE"/><stop offset="0.0153061" stop-color="#4FE5FE"/><stop offset="0.0204082" stop-color="#4FE5FE"/><stop offset="0.0255102" stop-color="#4FE5FE"/><stop offset="0.0306122" stop-color="#4FE5FE"/><stop offset="0.0357143" stop-color="#4FE5FE"/><stop offset="0.0408163" stop-color="#4FE5FE"/><stop offset="0.0459184" stop-color="#4FE5FE"/><stop offset="0.0510204" stop-color="#4FE5FE"/><stop offset="0.0561224" stop-color="#4FE5FE"/><stop offset="0.0612245" stop-color="#4FE4FE"/><stop offset="0.0663265" stop-color="#4FE4FE"/><stop offset="0.0714286" stop-color="#4FE4FE"/><stop offset="0.0765306" stop-color="#4FE4FE"/><stop offset="0.0816327" stop-color="#4FE4FE"/><stop offset="0.0867347" stop-color="#4FE3FD"/><stop offset="0.0918367" stop-color="#4FE3FD"/><stop offset="0.0969388" stop-color="#4FE3FD"/><stop offset="0.102041" stop-color="#4FE3FD"/><stop offset="0.107143" stop-color="#4FE3FD"/><stop offset="0.112245" stop-color="#4FE2FD"/><stop offset="0.117347" stop-color="#4FE2FD"/><stop offset="0.122449" stop-color="#4FE2FC"/><stop offset="0.127551" stop-color="#4EE1FC"/><stop offset="0.132653" stop-color="#4EE1FC"/><stop offset="0.137755" stop-color="#4EE1FC"/><stop offset="0.142857" stop-color="#4EE0FC"/><stop offset="0.147959" stop-color="#4EE0FB"/><stop offset="0.153061" stop-color="#4EE0FB"/><stop offset="0.158163" stop-color="#4EDFFB"/><stop offset="0.163265" stop-color="#4EDFFB"/><stop offset="0.168367" stop-color="#4EDFFB"/><stop offset="0.173469" stop-color="#4EDEFA"/><stop offset="0.178571" stop-color="#4EDEFA"/><stop offset="0.183673" stop-color="#4DDDFA"/><stop offset="0.188776" stop-color="#4DDDFA"/><stop offset="0.193878" stop-color="#4DDCF9"/><stop offset="0.19898" stop-color="#4DDCF9"/><stop offset="0.204082" stop-color="#4DDBF9"/><stop offset="0.209184" stop-color="#4DDBF9"/><stop offset="0.214286" stop-color="#4DDBF8"/><stop offset="0.219388" stop-color="#4DDAF8"/><stop offset="0.22449" stop-color="#4DDAF8"/><stop offset="0.229592" stop-color="#4CD9F8"/><stop offset="0.234694" stop-color="#4CD8F7"/><stop offset="0.239796" stop-color="#4CD8F7"/><stop offset="0.244898" stop-color="#4CD7F7"/><stop offset="0.25" stop-color="#4CD7F6"/><stop offset="0.255102" stop-color="#4CD6F6"/><stop offset="0.260204" stop-color="#4CD6F6"/><stop offset="0.265306" stop-color="#4CD5F5"/><stop offset="0.270408" stop-color="#4BD5F5"/><stop offset="0.27551" stop-color="#4BD4F5"/><stop offset="0.280612" stop-color="#4BD3F4"/><stop offset="0.285714" stop-color="#4BD3F4"/><stop offset="0.290816" stop-color="#4BD2F4"/><stop offset="0.295918" stop-color="#4BD1F3"/><stop offset="0.30102" stop-color="#4AD1F3"/><stop offset="0.306122" stop-color="#4AD0F3"/><stop offset="0.311224" stop-color="#4ACFF2"/><stop offset="0.316327" stop-color="#4ACFF2"/><stop offset="0.321429" stop-color="#4ACEF2"/><stop offset="0.326531" stop-color="#4ACDF1"/><stop offset="0.331633" stop-color="#49CDF1"/><stop offset="0.336735" stop-color="#49CCF0"/><stop offset="0.341837" stop-color="#49CBF0"/><stop offset="0.346939" stop-color="#49CAF0"/><stop offset="0.352041" stop-color="#49CAEF"/><stop offset="0.357143" stop-color="#49C9EF"/><stop offset="0.362245" stop-color="#48C8EE"/><stop offset="0.367347" stop-color="#48C7EE"/><stop offset="0.372449" stop-color="#48C7ED"/><stop offset="0.377551" stop-color="#48C6ED"/><stop offset="0.382653" stop-color="#48C5ED"/><stop offset="0.387755" stop-color="#47C4EC"/><stop offset="0.392857" stop-color="#47C3EC"/><stop offset="0.397959" stop-color="#47C2EB"/><stop offset="0.403061" stop-color="#47C2EB"/><stop offset="0.408163" stop-color="#47C1EA"/><stop offset="0.413265" stop-color="#46C0EA"/><stop offset="0.418367" stop-color="#46BFE9"/><stop offset="0.423469" stop-color="#46BEE9"/><stop offset="0.428571" stop-color="#46BDE8"/><stop offset="0.433673" stop-color="#45BCE8"/><stop offset="0.438776" stop-color="#45BBE7"/><stop offset="0.443878" stop-color="#45BBE7"/><stop offset="0.44898" stop-color="#45BAE6"/><stop offset="0.454082" stop-color="#45B9E6"/><stop offset="0.459184" stop-color="#44B8E5"/><stop offset="0.464286" stop-color="#44B7E5"/><stop offset="0.469388" stop-color="#44B6E4"/><stop offset="0.47449" stop-color="#44B5E4"/><stop offset="0.479592" stop-color="#43B4E3"/><stop offset="0.484694" stop-color="#43B3E2"/><stop offset="0.489796" stop-color="#43B2E2"/><stop offset="0.494898" stop-color="#43B1E1"/><stop offset="0.5" stop-color="#42B0E1"/><stop offset="0.505102" stop-color="#42AFE0"/><stop offset="0.510204" stop-color="#42AEE0"/><stop offset="0.515306" stop-color="#42ADDF"/><stop offset="0.520408" stop-color="#41ACDE"/><stop offset="0.52551" stop-color="#41ABDE"/><stop offset="0.530612" stop-color="#41A9DD"/><stop offset="0.535714" stop-color="#41A8DD"/><stop offset="0.540816" stop-color="#40A7DC"/><stop offset="0.545918" stop-color="#40A6DB"/><stop offset="0.55102" stop-color="#40A5DB"/><stop offset="0.556122" stop-color="#40A4DA"/><stop offset="0.561224" stop-color="#3FA3DA"/><stop offset="0.566327" stop-color="#3FA2D9"/><stop offset="0.571429" stop-color="#3FA1D8"/><stop offset="0.576531" stop-color="#3E9FD8"/><stop offset="0.581633" stop-color="#3E9ED7"/><stop offset="0.586735" stop-color="#3E9DD6"/><stop offset="0.591837" stop-color="#3E9CD6"/><stop offset="0.596939" stop-color="#3D9BD5"/><stop offset="0.602041" stop-color="#3D99D4"/><stop offset="0.607143" stop-color="#3D98D4"/><stop offset="0.612245" stop-color="#3C97D3"/><stop offset="0.617347" stop-color="#3C96D2"/><stop offset="0.622449" stop-color="#3C95D2"/><stop offset="0.627551" stop-color="#3B93D1"/><stop offset="0.632653" stop-color="#3B92D0"/><stop offset="0.637755" stop-color="#3B91D0"/><stop offset="0.642857" stop-color="#3B8FCF"/><stop offset="0.647959" stop-color="#3A8ECE"/><stop offset="0.653061" stop-color="#3A8DCD"/><stop offset="0.658163" stop-color="#3A8CCD"/><stop offset="0.663265" stop-color="#398ACC"/><stop offset="0.668367" stop-color="#3989CB"/><stop offset="0.673469" stop-color="#3988CB"/><stop offset="0.678571" stop-color="#3886CA"/><stop offset="0.683673" stop-color="#3885C9"/><stop offset="0.688776" stop-color="#3884C8"/><stop offset="0.693878" stop-color="#3782C8"/><stop offset="0.69898" stop-color="#3781C7"/><stop offset="0.704082" stop-color="#377FC6"/><stop offset="0.709184" stop-color="#367EC5"/><stop offset="0.714286" stop-color="#367DC4"/><stop offset="0.719388" stop-color="#367BC4"/><stop offset="0.72449" stop-color="#357AC3"/><stop offset="0.729592" stop-color="#3578C2"/><stop offset="0.734694" stop-color="#3577C1"/><stop offset="0.739796" stop-color="#3476C1"/><stop offset="0.744898" stop-color="#3474C0"/><stop offset="0.75" stop-color="#3473BF"/><stop offset="0.755102" stop-color="#3371BE"/><stop offset="0.760204" stop-color="#3370BD"/><stop offset="0.765306" stop-color="#326EBC"/><stop offset="0.770408" stop-color="#326DBC"/><stop offset="0.77551" stop-color="#326BBB"/><stop offset="0.780612" stop-color="#316ABA"/><stop offset="0.785714" stop-color="#3168B9"/><stop offset="0.790816" stop-color="#3167B8"/><stop offset="0.795918" stop-color="#3065B7"/><stop offset="0.80102" stop-color="#3064B7"/><stop offset="0.806122" stop-color="#2F62B6"/><stop offset="0.811224" stop-color="#2F60B5"/><stop offset="0.816327" stop-color="#2F5FB4"/><stop offset="0.821429" stop-color="#2E5DB3"/><stop offset="0.826531" stop-color="#2E5CB2"/><stop offset="0.831633" stop-color="#2E5AB1"/><stop offset="0.836735" stop-color="#2D58B0"/><stop offset="0.841837" stop-color="#2D57B0"/><stop offset="0.846939" stop-color="#2C55AF"/><stop offset="0.852041" stop-color="#2C54AE"/><stop offset="0.857143" stop-color="#2C52AD"/><stop offset="0.862245" stop-color="#2B50AC"/><stop offset="0.867347" stop-color="#2B4FAB"/><stop offset="0.872449" stop-color="#2A4DAA"/><stop offset="0.877551" stop-color="#2A4BA9"/><stop offset="0.882653" stop-color="#2A4AA8"/><stop offset="0.887755" stop-color="#2948A7"/><stop offset="0.892857" stop-color="#2946A6"/><stop offset="0.897959" stop-color="#2845A5"/><stop offset="0.903061" stop-color="#2843A4"/><stop offset="0.908163" stop-color="#2741A4"/><stop offset="0.913265" stop-color="#273FA3"/><stop offset="0.918367" stop-color="#273EA2"/><stop offset="0.923469" stop-color="#263CA1"/><stop offset="0.928571" stop-color="#263AA0"/><stop offset="0.933673" stop-color="#25389F"/><stop offset="0.938776" stop-color="#25379E"/><stop offset="0.943878" stop-color="#24359D"/><stop offset="0.94898" stop-color="#24339C"/><stop offset="0.954082" stop-color="#24319B"/><stop offset="0.959184" stop-color="#232F9A"/><stop offset="0.964286" stop-color="#232D99"/><stop offset="0.969388" stop-color="#222C98"/><stop offset="0.97449" stop-color="#222A97"/><stop offset="0.979592" stop-color="#212896"/><stop offset="0.984694" stop-color="#212695"/><stop offset="0.989796" stop-color="#202494"/><stop offset="0.994898" stop-color="#202293"/><stop offset="1" stop-color="#202192"/></linearGradient><clipPath id="clip31"><rect x="-6.5" y="-6.48721" width="150" height="139.974"/></clipPath><clipPath id="clip32"><rect x="0" y="0" width="139" height="127"/></clipPath><clipPath id="clip33"><rect x="-6.52612" y="-6.48724" width="136.044" height="139.974"/></clipPath><clipPath id="clip34"><rect x="0" y="0" width="125" height="127"/></clipPath><clipPath id="clip35"><rect x="1392" y="1244" width="288" height="288"/></clipPath><clipPath id="clip36"><rect x="1392" y="1244" width="288" height="288"/></clipPath><clipPath id="clip37"><rect x="1392" y="1244" width="288" height="288"/></clipPath></defs><g clip-path="url(#clip7)" transform="translate(-493 -774)"><g clip-path="url(#clip8)" filter="url(#fx0)" transform="matrix(4 0 0 4 1077 1350)"><g clip-path="url(#clip9)"><path d="M19.8102 22.7773C19.8102 21.1386 21.1386 19.8102 22.7773 19.8102L65.3432 19.8102C66.9819 19.8102 68.3103 21.1386 68.3103 22.7773L68.3103 52.3431C68.3103 53.9818 66.9819 55.3102 65.3432 55.3102L22.7773 55.3102C21.1386 55.3102 19.8102 53.9818 19.8102 52.3431Z" fill="#FFFFFF" fill-rule="evenodd" fill-opacity="0.890196"/></g></g><path d="M1153 1437.87C1153 1431.31 1158.31 1426 1164.87 1426L1335.13 1426C1341.69 1426 1347 1431.31 1347 1437.87L1347 1556.13C1347 1562.69 1341.69 1568 1335.13 1568L1164.87 1568C1158.31 1568 1153 1562.69 1153 1556.13Z" fill="#FFFFFF" fill-rule="evenodd" fill-opacity="0.890196"/><g clip-path="url(#clip10)"><g clip-path="url(#clip11)"><g clip-path="url(#clip12)"><path d="M55.1112 43.9742C55.3208 42.7103 55.4297 41.4129 55.4297 40.0898 55.4297 27.0615 44.868 16.5 31.8398 16.5 18.8115 16.5 8.25 27.0615 8.25 40.0898 8.25 52.5587 17.9238 62.7681 30.1755 63.6219 22.0473 73.6044 16.6289 84.9288 16.6289 92.8769 16.6289 111.375 33.3867 123.492 45.7619 123.492 55.0716 123.492 59.2519 121.855 62.1724 120.711 63.7407 120.097 64.9456 119.625 66.3869 119.625 67.9668 119.625 69.2064 120.193 70.7363 120.893 73.1994 122.02 76.4148 123.492 83.0156 123.492 94.6815 123.492 115.307 114.727 115.307 92.8769 115.307 85.0513 110.276 73.6407 102.425 63.5724 114.391 62.4327 123.75 52.3541 123.75 40.0898 123.75 27.0615 113.188 16.5 100.16 16.5 87.132 16.5 76.5703 27.0615 76.5703 40.0898 76.5703 41.2587 76.6553 42.4075 76.8195 43.5303 73.4044 42.3159 69.9055 41.6369 66.3869 41.6369 62.655 41.6369 58.8584 42.4821 55.1112 43.9742Z" fill="#F3AD61" transform="matrix(1 0 0 1.00758 1187 1429)"/><path d="M28.2949 57.2344C38.0127 57.2344 45.8906 49.3565 45.8906 39.6387 45.8906 29.9209 38.0127 22.043 28.2949 22.043 18.5771 22.043 10.6992 29.9209 10.6992 39.6387 10.6992 49.3565 18.5771 57.2344 28.2949 57.2344Z" fill="#FF8687" transform="matrix(1 0 0 1.00758 1187 1429)"/><path d="M103.576 57.2344C113.294 57.2344 121.172 49.3565 121.172 39.6387 121.172 29.9209 113.294 22.043 103.576 22.043 93.8582 22.043 85.9807 29.9209 85.9807 39.6387 85.9807 49.3565 93.8582 57.2344 103.576 57.2344Z" fill="#FF8687" transform="matrix(1 0 0 1.00758 1187 1429)"/><path d="M49.5 74.1213C47.2218 74.1213 45.375 75.9681 45.375 78.2459L45.375 82.3713C45.375 84.6491 47.2218 86.4963 49.5 86.4963 51.7782 86.4963 53.625 84.6491 53.625 82.3713L53.625 78.2463C53.625 75.9681 51.7782 74.1213 49.5 74.1213Z" fill="#1C1C1C" transform="matrix(1 0 0 1.00758 1187 1429)"/><path d="M82.5 74.1213C80.2218 74.1213 78.375 75.9681 78.375 78.2459L78.375 82.3713C78.375 84.6491 80.2218 86.4963 82.5 86.4963 84.7782 86.4963 86.625 84.6491 86.625 82.3713L86.625 78.2463C86.625 75.9681 84.7782 74.1213 82.5 74.1213Z" fill="#1C1C1C" transform="matrix(1 0 0 1.00758 1187 1429)"/><path d="M72.5418 93.3925C72.5418 95.4034 68.7068 100.418 66.0322 100.418 63.1707 100.418 59.4582 95.8419 59.4582 93.3925 59.4582 90.9435 62.3584 90.7178 66.0322 90.7178 69.7059 90.7178 72.5418 90.8787 72.5418 93.3925Z" fill="#F70A8D" transform="matrix(1 0 0 1.00758 1187 1429)"/><path d="M66.0021 108.879C64.3669 111.167 62.0817 112.295 59.6673 112.127 56.2357 111.889 53.3573 108.946 53.637 104.978 53.717 103.842 54.7029 102.986 55.8393 103.066 56.9757 103.146 57.8317 104.132 57.7516 105.268 57.6362 106.908 58.7421 107.928 59.9528 108.012 60.9725 108.083 62.9409 107.43 63.9004 103.592 64.1429 102.621 65.0368 101.984 66 102.031 66.9632 101.984 67.8571 102.621 68.1 103.592 69.0583 107.427 71.0201 108.058 72.0328 107.981 73.2501 107.888 74.3643 106.849 74.2483 105.204 74.1683 104.067 75.0243 103.081 76.1607 103.001 77.2971 102.921 78.283 103.778 78.363 104.914 78.6423 108.876 75.7725 111.832 72.3471 112.094 69.9286 112.279 67.6393 111.161 66.0021 108.879Z" fill="#1C1C1C" transform="matrix(1 0 0 1.00758 1187 1429)"/></g></g></g><g clip-path="url(#clip13)" filter="url(#fx1)" transform="matrix(4 0 0 3.98413 498 773)"><g clip-path="url(#clip14)"><path d="M19.8102 24.7943C19.8102 22.0853 21.9976 19.8892 24.6958 19.8892L298.425 19.8892C301.123 19.8892 303.31 22.0853 303.31 24.7943L303.31 101.327C303.31 104.036 301.123 106.232 298.425 106.232L24.6958 106.232C21.9976 106.232 19.8102 104.036 19.8102 101.327Z" fill="#FFFFFF" fill-rule="evenodd" fill-opacity="0.890196"/></g></g><path d="M574 868.542C574 857.75 582.75 849 593.542 849L1688.46 849C1699.25 849 1708 857.75 1708 868.542L1708 1173.46C1708 1184.25 1699.25 1193 1688.46 1193L593.542 1193C582.75 1193 574 1184.25 574 1173.46Z" fill="#FFFFFF" fill-rule="evenodd" fill-opacity="0.890196"/><g clip-path="url(#clip15)" filter="url(#fx2)" transform="matrix(4 0 0 3.97727 1077 1139)"><g clip-path="url(#clip16)"><path d="M19.8102 23.8168C19.8102 21.6666 21.5434 19.9235 23.6814 19.9235L64.4391 19.9235C66.5771 19.9235 68.3103 21.6666 68.3103 23.8168L68.3103 64.3044C68.3103 66.4546 66.5771 68.1977 64.4391 68.1977L23.6814 68.1977C21.5434 68.1977 19.8102 66.4546 19.8102 64.3044Z" fill="#FFFFFF" fill-rule="evenodd" fill-opacity="0.890196"/></g></g><path d="M1153 1230.48C1153 1221.93 1159.93 1215 1168.48 1215L1331.52 1215C1340.07 1215 1347 1221.93 1347 1230.48L1347 1391.52C1347 1400.07 1340.07 1407 1331.52 1407L1168.48 1407C1159.93 1407 1153 1400.07 1153 1391.52Z" fill="#FFFFFF" fill-rule="evenodd" fill-opacity="0.890196"/><g clip-path="url(#clip17)"><g clip-path="url(#clip18)"><g clip-path="url(#clip19)"><path d="M32.1404 36.3254 16.6944 44.4258C14.8832 45.3817 14.531 47.847 16.0404 49.3061L29.1719 61.7334 32.1404 36.3254Z" fill="#F9C23C" transform="matrix(1.00621 0 0 1 1169 1232)"/><path d="M93.3709 143.391 84.4152 143.391 90.4527 113.203 82.9059 113.203 76.8684 143.391 59.2585 143.391 65.296 113.203 57.7491 113.203 51.7116 143.391 42.6555 143.391C38.9827 143.391 35.9639 146.007 35.2596 149.478 35.0583 150.233 35.7124 150.937 36.4671 150.937L99.509 150.937C100.314 150.937 100.918 150.233 100.767 149.478 100.062 146.007 96.9934 143.391 93.3709 143.391Z" fill="#F9C23C" transform="matrix(1.00621 0 0 1 1169 1232)"/><path d="M88.3894 31.2943C87.7354 29.1812 86.8801 27.1687 85.7732 25.3072L88.8926 25.3072C95.3829 25.3072 100.615 20.0747 100.615 13.5844 100.615 11.6725 99.0054 10.0625 97.0935 10.0625L59.5604 10.0625C43.5612 10.0625 30.4799 22.54 29.4234 38.2878L22.9331 94.5371C21.0212 111.191 34.0018 125.781 50.7557 125.781L119.935 125.781 119.919 125.731 146.5 125.731C148.513 125.731 150.123 124.121 150.123 122.108L150.123 76.0724C150.123 73.4562 147.356 71.6953 144.941 72.8021L108.002 90.0055 96.4399 55.3437 96.4188 55.3437 88.3894 31.2943Z" fill="#CA0B4A" transform="matrix(1.00621 0 0 1 1169 1232)"/><path d="M50.3125 50.3125C53.0912 50.3125 55.3437 48.0599 55.3437 45.2812 55.3437 42.5026 53.0912 40.25 50.3125 40.25 47.5338 40.25 45.2812 42.5026 45.2812 45.2812 45.2812 48.0599 47.5338 50.3125 50.3125 50.3125Z" fill="#212121" transform="matrix(1.00621 0 0 1 1169 1232)"/></g></g></g><g clip-path="url(#clip20)" filter="url(#fx3)" transform="matrix(3.98701 0 0 4.0122 492 1321)"><g clip-path="url(#clip21)" transform="translate(1.42109e-14 0)"><path d="M19.8747 23.3846C19.8747 21.3773 21.5123 19.75 23.5323 19.75L53.5886 19.75C55.6086 19.75 57.2461 21.3773 57.2461 23.3846L57.2461 58.7355C57.2461 60.7428 55.6086 62.3701 53.5886 62.3701L23.5323 62.3701C21.5123 62.3701 19.8747 60.7428 19.8747 58.7355Z" fill="#FFFFFF" fill-rule="evenodd" fill-opacity="0.890196"/></g></g><path d="M568 1411.58C568 1403.53 574.529 1397 582.583 1397L702.417 1397C710.471 1397 717 1403.53 717 1411.58L717 1553.42C717 1561.47 710.471 1568 702.417 1568L582.583 1568C574.529 1568 568 1561.47 568 1553.42Z" fill="#FFFFFF" fill-rule="evenodd" fill-opacity="0.890196"/><g clip-path="url(#clip22)"><g clip-path="url(#clip23)"><g clip-path="url(#clip24)"><path d="M104.47 47.8461C105.73 47.6723 106.902 48.4542 107.207 49.6704 107.207 49.6704 115.696 99.3743 115.653 105.065 115.653 119.573 107.101 130.109 92.4408 130.109 74.1154 130.109 66.3778 115.054 66.3778 100.042 66.3778 98.3097 66.1011 96.7094 65.6012 95.2147L60.1593 95.2147C59.8922 95.2147 59.625 95.4376 59.625 95.7494L59.625 100.138C59.625 103.69 56.7256 106.561 53.9916 106.88 53.8226 106.9 53.6589 106.917 53.5003 106.933 52.4322 107.043 51.586 107.131 50.8015 107.915 50.8015 107.915 48.7465 110.081 48.0776 110.474 47.4082 110.867 45.5725 111.216 44.6816 110.324 43.7907 109.434 43.7017 107.89 44.5926 106.999L45.6264 105.981C45.7602 105.803 45.7471 105.489 45.5247 105.489L43.2848 105.658C42.3007 105.658 41.4014 104.912 41.3166 103.877 41.2317 102.842 41.6559 101.841 43.2848 101.552L44.7589 101.217C44.9818 101.217 45.1151 100.95 44.9818 100.772L44.0483 99.6927C43.2848 98.9734 43.2422 97.4209 44.1334 96.5296 45.0243 95.6387 46.7545 95.7746 47.6458 96.6655L50.2755 99.0581C50.666 99.4655 50.9201 99.6927 51.4292 99.6927 51.6968 99.6927 52.0404 99.4703 52.0404 99.1584L52.0404 94.035C52.0404 90.4266 55.134 87.6218 58.7424 87.6218L60.6532 87.6218C59.4964 86.4421 58.2198 85.3192 56.8759 84.2281 51.0739 79.5173 46.1038 73.8335 43.2376 67.0567L33.39 67.0567C28.981 67.0567 26.7582 63.663 26.7582 60.9824L26.7582 57.8771C26.7582 57.573 26.6605 57.3306 26.4867 57.1135L23.7719 54.2292C22.9031 53.3605 22.7918 51.6607 23.704 50.8354 24.5727 50.0101 26.049 49.9667 26.8743 50.8354L27.3833 51.0878C27.557 51.2615 27.8611 51.1312 27.8611 50.914L27.8611 49.9584C27.8611 48.7856 28.8283 47.7136 29.999 47.7136 31.3395 47.7131 32.4397 48.6987 32.4397 49.9584L32.4397 51.0878C32.4397 51.3484 32.7438 51.4353 32.9175 51.2615L33.5283 50.7503C34.3536 49.925 35.7307 49.9684 36.5995 50.7503 37.5117 51.5756 37.4683 53.2414 36.5995 54.1102L34.0883 56.865C33.8711 57.0822 33.7998 57.3428 33.7998 57.6469L33.7984 57.8693C33.7955 58.2359 33.7902 58.9231 33.7998 59.3531 33.8099 59.8027 34.0629 59.8622 34.241 59.8622L41.1108 59.8622C40.7904 58.0243 40.6209 56.1192 40.6209 54.1445L40.6209 50.5826C40.6209 50.368 40.6342 50.1461 40.6476 49.9232 40.6992 49.0636 40.7516 48.1909 40.044 47.6784 35.7871 44.5943 32.5728 39.0629 32.4424 33.4594 32.2832 26.2147 37.2465 19.9716 41.7571 14.2979 42.7429 13.0579 43.7069 11.8452 44.5913 10.6551 47.1254 7.245 52.377 7.19235 55.4507 10.6551 56.1305 11.4208 56.8259 12.1803 57.5235 12.9422 62.6387 18.5284 67.8712 24.2432 67.8712 33.4598 67.8712 39.3239 64.768 44.762 60.294 47.8895 59.3818 48.4976 59.2515 49.4967 59.2515 50.5826L59.2515 53.9273C59.3861 56.4454 59.638 58.265 60.2197 59.8448L67.5941 59.8448C67.906 59.8448 67.9029 59.635 67.899 59.3414L67.8981 59.2367 67.8981 57.431C67.8981 57.1269 67.7153 56.8663 67.4981 56.6491L64.8849 54.0928C64.0161 53.2241 63.9727 51.6972 64.8849 50.8719 65.7536 50.0466 67.2327 49.8728 68.058 50.7416L68.7169 51.0457C68.8907 51.2194 69.1947 51.1325 69.1947 50.8719L69.1947 49.5796C69.1947 48.7995 69.9414 47.5776 71.2645 47.5776 72.6902 47.5776 73.6319 48.545 73.6319 49.5796L73.7931 50.8719C73.7931 51.0891 74.0971 51.2194 74.2709 51.0457L74.8112 50.7416C75.6365 49.8728 77.0326 50.034 77.8145 50.7416 78.5964 51.4492 78.9886 53.0004 78.1199 53.8691L75.5914 56.7742 75.5449 56.832C75.369 57.0492 75.1166 57.3615 75.1166 57.6395L75.1166 60.7957C75.1166 64.401 72.2488 67.2044 68.2022 67.2044L66.1376 67.2044C66.4825 67.5211 66.8283 67.8373 67.1745 68.154 70.6273 71.3119 74.1193 74.5054 77.0947 78.2554L77.0986 77.97C77.0986 74.4516 81.402 73.9116 84.9204 73.9116L88.1987 73.9116C88.5028 73.9116 88.7078 73.6123 88.7078 73.3517L88.7078 72.3666C88.7078 72.3666 88.736 71.1916 88.6057 71.0613L85.976 67.9051C85.1359 67.0654 85.1919 65.7571 86.0607 64.8884 86.9294 64.0196 87.9441 64.1721 88.6057 64.4605L89.8289 65.1055C90.0026 65.2358 90.2633 65.1055 90.2633 64.8884L90.2633 63.7225C90.2633 62.5062 91.3492 61.5506 92.5655 61.5506 93.7817 61.5506 94.8498 62.5062 94.8498 63.7225L94.8498 64.7832C94.8498 65.0004 95.1105 65.1307 95.2842 65.0004L96.2755 64.4605C96.8015 64.1382 98.0364 63.9145 98.9052 64.7832 99.7739 65.652 99.7535 66.8869 99.0242 67.9051L97.9044 69.2794 97.056 70.3993C96.9687 70.4861 96.8819 70.6599 96.8819 70.7902L96.8819 74.5819C96.8819 79.698 92.913 82.0223 89.3945 82.0223L85.4417 82.0223C85.1376 82.0223 84.9204 82.4866 84.9204 82.7473L84.9569 97.7814C85.0773 99.1041 85.1402 100.484 85.1402 101.926 85.1402 107.432 87.8308 113.114 94.409 112.938 99.1002 112.807 101.807 109.476 101.807 101.926L102.428 50.322C102.428 49.1057 103.254 48.0198 104.47 47.8461Z" fill="#00D26A" transform="matrix(1.00719 0 0 1 573 1414)"/><path d="M43.4376 28.2344C43.4376 29.4339 42.4652 30.4063 41.2657 30.4063 40.0662 30.4063 39.0938 29.4339 39.0938 28.2344 39.0938 27.0349 40.0662 26.0625 41.2657 26.0625 42.4652 26.0625 43.4376 27.0349 43.4376 28.2344Z" fill="#1C1C1C" transform="matrix(1.00719 0 0 1 573 1414)"/><path d="M60.8126 28.2344C60.8126 29.4339 59.84 30.4063 58.6407 30.4063 57.4414 30.4063 56.4688 29.4339 56.4688 28.2344 56.4688 27.0349 57.4414 26.0625 58.6407 26.0625 59.84 26.0625 60.8126 27.0349 60.8126 28.2344Z" fill="#1C1C1C" transform="matrix(1.00719 0 0 1 573 1414)"/></g></g></g><g clip-path="url(#clip25)" filter="url(#fx4)" transform="matrix(4 0 0 3.98734 497 1141)"><g clip-path="url(#clip26)"><path d="M19.8102 23.2241C19.8102 21.3734 21.3058 19.8731 23.1507 19.8731L52.9698 19.8731C54.8147 19.8731 56.3103 21.3734 56.3103 23.2241L56.3103 55.8966C56.3103 57.7474 54.8147 59.2477 52.9698 59.2477L23.1507 59.2477C21.3058 59.2477 19.8102 57.7474 19.8102 55.8966Z" fill="#FFFFFF" fill-rule="evenodd" fill-opacity="0.890196"/></g></g><path d="M573 1230.36C573 1222.98 578.982 1217 586.362 1217L705.638 1217C713.018 1217 719 1222.98 719 1230.36L719 1360.64C719 1368.02 713.018 1374 705.638 1374L586.362 1374C578.982 1374 573 1368.02 573 1360.64Z" fill="#FFFFFF" fill-rule="evenodd" fill-opacity="0.890196"/><g clip-path="url(#clip27)"><g clip-path="url(#clip28)"><g clip-path="url(#clip29)"><path d="M59.025 18.0384C59.9845 15.7692 59.9069 13.0956 58.5893 10.7999 56.2268 6.71611 50.8943 5.50111 46.9793 8.16736L29.1876 20.345C20.2286 21.2992 12.5239 26.0404 8.87449 34.0757 8.68353 34.4962 8.49754 34.9424 8.33581 35.3305L8.32585 35.3545 4.7901 43.874C3.82154 46.1166 3.375 48.5267 3.375 50.895 3.375 60.049 10.826 67.5 19.98 67.5L27.1013 67.5 27.1013 91.7048C23.1755 93.1 20.3513 96.8557 20.3513 101.25L20.3513 101.25C20.3513 103.114 21.8624 104.625 23.7263 104.625 40.5337 104.625 57.3412 104.625 74.1484 104.625 81.7084 104.625 88.4236 99.7842 90.8441 92.6498 91.4621 90.8316 92.0929 89.0014 92.7264 87.163 94.0781 83.2409 95.4436 79.279 96.7234 75.3202L96.7389 75.2719 96.7531 75.223C97.477 72.7288 97.8749 70.1466 97.8749 67.5 97.8749 65.3842 97.5938 63.1158 97.1297 61.075 97.013 60.5623 96.8807 60.0453 96.7315 59.5336 101.39 57.4043 104.625 52.7063 104.625 47.25 104.625 39.7939 98.5807 33.7499 91.1249 33.7499 85.6514 33.7499 80.9409 37.0058 78.8214 41.6876 76.3084 40.9151 73.6391 40.5 70.875 40.5L66.1992 40.5C72.4956 40.4733 77.625 35.3274 77.625 29.0251 77.625 22.3475 71.9479 17.0356 65.2478 17.5601L65.2444 17.5604 59.025 18.0384Z" fill="#9B9B9B" fill-rule="evenodd" transform="matrix(1.00926 0 0 1 591 1240)"/><path d="M30.375 23.6251 65.5087 20.9251C70.2337 20.5538 74.25 24.3001 74.25 29.0251 74.25 33.4801 70.605 37.125 66.15 37.125L49.4775 37.125C50.22 39.2512 50.625 41.5125 50.625 43.875L70.875 43.875C74.5264 43.875 77.9786 44.7008 81.0563 46.174 81.5936 41.0879 85.8964 37.125 91.1249 37.125 96.717 37.125 101.25 41.6579 101.25 47.25 101.25 52.4876 97.2728 56.7965 92.1736 57.3213 93.5121 59.4337 94.4999 63.8226 94.4999 67.5 94.4999 69.8051 94.1537 72.0707 93.5121 74.2823 91.6416 80.0678 89.6055 85.8059 87.6487 91.5637 85.6912 97.3349 80.2575 101.25 74.1487 101.25 74.1487 101.25 50.7296 101.25 47.25 101.25 47.25 97.5374 50.2875 94.4999 54 94.4999L56.3625 94.4999C56.9362 94.4999 57.4087 94.0274 57.4087 93.4537L57.4087 91.1249 47.3512 91.1249 44.955 98.2799C44.3475 100.069 42.6937 101.25 40.8375 101.25L23.7263 101.25C23.7263 97.5374 26.7638 94.4999 30.4763 94.4999L30.4763 64.125 19.98 64.125C12.69 64.125 6.75 58.185 6.75 50.895 6.75 48.9375 7.12124 46.98 7.89749 45.1912L11.4412 36.6525C11.61 36.2475 11.7787 35.8425 11.9475 35.4712 15.12 28.4851 22.005 24.2663 30.375 23.6251Z" fill="#FFFFFF" transform="matrix(1.00926 0 0 1 591 1240)"/><path d="M65.7787 24.266 66.15 24.266C68.8162 24.266 70.9762 26.4935 70.8412 29.1935 70.74 31.7585 68.5462 33.7498 65.9812 33.7498L42.2212 33.7498C41.2425 33.7498 40.5 32.8048 40.7362 31.826 41.5462 28.4848 44.415 25.9198 47.9925 25.6498L65.7787 24.266Z" fill="#FF8687" transform="matrix(1.00926 0 0 1 591 1240)"/><path d="M6.75 50.895C7.15499 50.7262 7.59375 50.625 8.0325 50.625 9.92249 50.625 11.4075 52.1437 11.4075 54 11.4075 55.7212 10.125 57.1387 8.43749 57.3412 7.3575 55.4512 6.75 53.2575 6.75 50.895Z" fill="#FF8687" transform="matrix(1.00926 0 0 1 591 1240)"/><path d="M22.9837 49.3425C24.4935 49.3425 25.7175 48.1187 25.7175 46.6087 25.7175 45.0987 24.4935 43.875 22.9837 43.875 21.4739 43.875 20.25 45.0987 20.25 46.6087 20.25 48.1187 21.4739 49.3425 22.9837 49.3425Z" fill="#1C1C1C" transform="matrix(1.00926 0 0 1 591 1240)"/></g></g></g><path d="M1314.93 1019.53C1304.41 1019.53 1299.15 1026.73 1299.15 1041.13 1299.15 1056.32 1304.48 1063.92 1315.13 1063.92 1325.52 1063.92 1330.71 1055.99 1330.71 1040.15 1330.71 1026.4 1325.45 1019.53 1314.93 1019.53ZM1188.2 1019.53C1183.73 1019.53 1180.11 1021.44 1177.35 1025.25 1174.59 1029.07 1173.21 1034.29 1173.21 1040.93L1173.21 1042.91C1173.21 1049.29 1174.39 1054.38 1176.76 1058.19 1179.13 1062.01 1182.68 1063.92 1187.41 1063.92 1192.47 1063.92 1196.39 1061.83 1199.15 1057.65 1201.91 1053.48 1203.29 1047.58 1203.29 1039.95 1203.29 1033.57 1202.06 1028.57 1199.59 1024.96 1197.13 1021.34 1193.33 1019.53 1188.2 1019.53ZM867.901 1014.2C864.416 1014.2 861.49 1015.8 859.122 1018.99 856.755 1022.18 855.374 1026.4 854.98 1031.66L880.427 1031.66C880.427 1020.02 876.252 1014.2 867.901 1014.2ZM1314.93 988.757C1326.9 988.757 1337.27 990.96 1346.05 995.366 1354.83 999.771 1361.57 1005.89 1366.27 1013.71 1370.97 1021.54 1373.32 1030.28 1373.32 1039.95 1373.32 1056.98 1368.18 1070.36 1357.89 1080.09 1347.59 1089.82 1333.21 1094.69 1314.73 1094.69 1296.39 1094.69 1282.1 1089.94 1271.88 1080.44 1261.65 1070.94 1256.54 1057.83 1256.54 1041.13 1256.54 1030.41 1258.94 1021.11 1263.74 1013.22 1268.54 1005.33 1275.38 999.278 1284.26 995.07 1293.13 990.862 1303.36 988.757 1314.93 988.757ZM1205.56 988.757C1218.58 988.757 1228.56 993.097 1235.49 1001.78 1242.43 1010.46 1245.9 1022.75 1245.9 1038.67 1245.9 1049.71 1244.03 1059.48 1240.28 1067.96 1236.53 1076.44 1231.24 1083.02 1224.4 1087.69 1217.56 1092.35 1209.87 1094.69 1201.32 1094.69 1189.48 1094.69 1180.51 1090.38 1174.39 1081.77L1174 1081.77 1174 1138.68 1131.98 1138.68 1131.98 991.223 1174 991.223 1174 1004.93 1174.39 1004.93C1177.74 999.87 1182.08 995.908 1187.41 993.048 1192.74 990.188 1198.79 988.757 1205.56 988.757ZM868.098 988.757C878.553 988.757 887.496 990.796 894.926 994.873 902.356 998.95 907.995 1004.67 911.842 1012.03 915.688 1019.4 917.612 1028.01 917.612 1037.88L917.612 1053.66 855.177 1053.66C855.9 1058 858.399 1061.4 862.673 1063.87 866.947 1066.33 872.602 1067.57 879.638 1067.57 889.435 1067.57 898.707 1065.69 907.452 1061.94L907.452 1088.57C897.26 1092.65 884.898 1094.69 870.366 1094.69 852.744 1094.69 839.034 1090.18 829.237 1081.18 819.439 1072.17 814.54 1059.77 814.54 1043.99 814.54 1033.14 816.694 1023.57 821.001 1015.29 825.308 1007 831.686 1000.51 840.135 995.81 848.585 991.108 857.906 988.757 868.098 988.757ZM733.435 981.36 733.435 1016.28 743.002 1016.28C755.233 1016.28 761.348 1010.49 761.348 998.917 761.348 993.13 759.671 988.757 756.318 985.798 752.964 982.839 748.032 981.36 741.523 981.36ZM1519.43 980.275 1519.43 1012.63 1527.13 1012.63C1532.85 1012.63 1537.45 1011.02 1540.94 1007.79 1544.42 1004.57 1546.16 1000.53 1546.16 995.662 1546.16 990.927 1544.72 987.179 1541.82 984.418 1538.93 981.656 1534.39 980.275 1528.21 980.275ZM1439.08 959.957 1439.08 991.223 1460.09 991.223 1460.09 1020.32 1439.08 1020.32 1439.08 1050.6C1439.08 1059.48 1442.6 1063.92 1449.64 1063.92 1452.93 1063.92 1456.41 1063.19 1460.09 1061.75L1460.09 1090.84C1458.19 1091.76 1455.06 1092.63 1450.72 1093.46 1446.38 1094.28 1441.16 1094.69 1435.04 1094.69 1423.34 1094.69 1414.18 1091.47 1407.57 1085.02 1400.96 1078.58 1397.66 1069.41 1397.66 1057.5L1397.66 1020.32 1381.78 1020.32 1381.78 991.223 1397.66 991.223 1397.66 971.398ZM982.084 959.957 982.084 991.223 1003.09 991.223 1003.09 1020.32 982.084 1020.32 982.084 1050.6C982.084 1059.48 985.602 1063.92 992.638 1063.92 995.926 1063.92 999.411 1063.19 1003.09 1061.75L1003.09 1090.84C1001.19 1091.76 998.063 1092.63 993.723 1093.46 989.383 1094.28 984.156 1094.69 978.04 1094.69 966.336 1094.69 957.179 1091.47 950.571 1085.02 943.963 1078.58 940.658 1069.41 940.658 1057.5L940.658 1020.32 924.779 1020.32 924.779 991.223 940.658 991.223 940.658 971.398ZM1476.83 950.784 1533.44 950.784C1553.23 950.784 1567.85 954.022 1577.28 960.499 1586.72 966.976 1591.44 976.691 1591.44 989.645 1591.44 999.377 1588.69 1007.53 1583.2 1014.11 1577.71 1020.68 1569.54 1025.45 1558.69 1028.41L1558.69 1028.8C1564.67 1030.64 1569.66 1033.64 1573.63 1037.78 1577.61 1041.92 1581.18 1048.07 1584.34 1056.22L1598.24 1092.22 1550.21 1092.22 1539.65 1061.75C1537.62 1055.76 1534.97 1051.06 1531.71 1047.64 1528.46 1044.22 1524.93 1042.51 1521.11 1042.51L1519.43 1042.51 1519.43 1092.22 1476.83 1092.22ZM690.825 950.784 748.822 950.784C768.745 950.784 783.327 954.565 792.565 962.127 801.804 969.688 806.423 981.459 806.423 997.437 806.423 1007.1 803.974 1015.68 799.075 1023.18 794.176 1030.68 787.19 1036.48 778.115 1040.59 769.041 1044.7 758.488 1046.75 746.454 1046.75L733.435 1046.75 733.435 1092.22 690.825 1092.22ZM1071.41 948.417C1076.34 948.417 1080.88 948.614 1085.02 949.008 1089.16 949.403 1092.93 949.896 1096.32 950.488 1099.7 951.08 1104.45 952.198 1110.57 953.841L1110.57 989.842C1098.67 983.333 1086.96 980.078 1075.45 980.078 1070.72 980.078 1066.91 980.965 1064.01 982.741 1061.12 984.516 1059.67 986.949 1059.67 990.04 1059.67 992.999 1060.84 995.448 1063.17 997.388 1065.51 999.328 1070.39 1001.84 1077.82 1004.93 1092.48 1010.85 1102.86 1017.33 1108.94 1024.36 1115.02 1031.4 1118.06 1039.75 1118.06 1049.42 1118.06 1058.82 1115.55 1067.01 1110.52 1073.98 1105.49 1080.95 1098.44 1086.14 1089.36 1089.56 1080.29 1092.98 1069.37 1094.69 1056.62 1094.69 1041.82 1094.69 1028.27 1092.19 1015.98 1087.19L1015.98 1048.43C1021.9 1052.77 1028.44 1056.27 1035.61 1058.93 1042.77 1061.6 1049.45 1062.93 1055.63 1062.93 1060.3 1062.93 1063.91 1062.09 1066.48 1060.41 1069.04 1058.74 1070.33 1056.29 1070.33 1053.07 1070.33 1050.76 1069.68 1048.74 1068.4 1047 1067.12 1045.26 1065.18 1043.63 1062.58 1042.12 1059.99 1040.61 1055.17 1038.53 1048.13 1035.9 1025.38 1027.16 1014.01 1013.02 1014.01 993.492 1014.01 979.815 1019.2 968.883 1029.59 960.696 1039.98 952.51 1053.92 948.417 1071.41 948.417Z" fill="url(#fill30)" fill-rule="evenodd"/><text fill="#000000" fill-opacity="0" font-family="Arial,Arial_MSFontService,sans-serif" font-size="190.263" x="690.825" y="1114.9">PetSpotR</text><path d="M1257 1042C1257 1072.93 1282.3 1098 1313.5 1098 1344.7 1098 1370 1072.93 1370 1042 1370 1011.07 1344.7 986 1313.5 986 1282.3 986 1257 1011.07 1257 1042Z" fill="#43B0E1" fill-rule="evenodd"/><path d="M1251 1041.99C1251 1076.23 1278.83 1103.99 1313.17 1103.99 1326.14 1103.99 1338.19 1100.02 1348.15 1093.25 1346.6 1100.09 1348.49 1107.55 1353.84 1112.88L1371.82 1130.81C1380.1 1139.06 1393.52 1139.06 1401.79 1130.81 1410.07 1122.56 1410.07 1109.18 1401.79 1100.92L1383.81 1082.99C1378.51 1077.71 1371.1 1075.81 1364.29 1077.29 1371.26 1067.27 1375.34 1055.11 1375.34 1041.99 1375.34 1007.76 1347.51 980 1313.17 980 1278.83 980 1251 1007.76 1251 1041.99ZM1364.04 1041.99C1364.04 1070.01 1341.26 1092.71 1313.17 1092.71 1285.08 1092.71 1262.3 1070.01 1262.3 1041.99 1262.3 1013.98 1285.08 991.271 1313.17 991.271 1341.26 991.271 1364.04 1013.98 1364.04 1041.99Z" fill="#533566" fill-rule="evenodd"/><path d="M1344.03 1012.33C1347.23 1017.65 1346.45 1023.83 1342.29 1026.13 1338.14 1028.44 1332.17 1025.99 1328.97 1020.67 1325.77 1015.35 1326.55 1009.17 1330.71 1006.87 1334.86 1004.56 1340.83 1007.01 1344.03 1012.33Z" fill="#FFFFFF" fill-rule="evenodd"/><g clip-path="url(#clip31)" filter="url(#fx5)" transform="matrix(4 0 0 4.00787 661 1141)"><g clip-path="url(#clip32)"><path d="M19.8102 24.7466C19.8102 21.9988 22.0421 19.7713 24.7953 19.7713L114.325 19.7713C117.078 19.7713 119.31 21.9988 119.31 24.7466L119.31 102.374C119.31 105.121 117.078 107.349 114.325 107.349L24.7953 107.349C22.0421 107.349 19.8102 105.121 19.8102 102.374Z" fill="#FFFFFF" fill-rule="evenodd" fill-opacity="0.890196"/></g></g><path d="M737 1236.94C737 1225.93 745.928 1217 756.94 1217L1115.06 1217C1126.07 1217 1135 1225.93 1135 1236.94L1135 1548.06C1135 1559.07 1126.07 1568 1115.06 1568L756.94 1568C745.928 1568 737 1559.07 737 1548.06Z" fill="#FFFFFF" fill-rule="evenodd" fill-opacity="0.890196"/><path d="M794.5 1370C789.854 1370 786 1366.22 786 1361.67L786 1359.11C786 1354 790.194 1350 795.293 1350L803 1350 803 1361.67C803 1366.22 799.147 1370 794.5 1370Z" fill="#F8312F" fill-rule="evenodd"/><path d="M927.288 1427 893 1427 909.687 1525.08C910.03 1526.77 911.516 1528 913.23 1528L941.118 1528C942.832 1528 944.204 1526.43 943.975 1524.75L927.288 1427Z" fill="#C55A11" fill-rule="evenodd"/><path d="M977.114 1427 1011 1427 988.748 1525.3C988.409 1526.88 987.054 1528 985.359 1528L957.798 1528C955.991 1528 954.636 1526.43 955.088 1524.63L977.114 1427Z" fill="#C55A11" fill-rule="evenodd"/><path d="M966.796 1299.25C971.183 1268.69 997.619 1245.34 1029.45 1246.01 1062.19 1246.69 1089.07 1273.42 1089.97 1306.25 1090.71 1331.44 1076.41 1353.37 1055.42 1363.74 1055.95 1366.6 1056.23 1369.55 1056.23 1372.57L1056.23 1432.12C1056.23 1433.37 1056.9 1434.49 1057.8 1435.06L1070.96 1443.86C1075.8 1447.13 1078.72 1452.65 1078.84 1458.52L1078.84 1524.5C1078.84 1526.42 1077.26 1528 1075.35 1528L1048.58 1528C1046.66 1528 1045.09 1526.42 1045.09 1524.5L1045.09 1485.25C1045.09 1483.78 1044.19 1482.54 1042.84 1481.98L1015.28 1470.93C999.418 1464.61 989.069 1449.38 988.732 1432.35L941.936 1426.48 887.491 1437.76 887.491 1450.96C887.491 1468.67 873.317 1482.88 855.656 1482.88L842.495 1482.88 842.495 1487.17C842.495 1491 839.345 1494.16 835.52 1494.16L815.834 1494.16C811.897 1494.16 808.747 1491 808.747 1487.17L808.747 1479.61C808.747 1462.69 822.359 1449.04 839.12 1449.04L853.743 1449.04 853.743 1437.43C839.345 1423.21 831.245 1403.81 831.245 1383.51L831.245 1362.3C831.245 1360.39 829.671 1358.81 827.758 1358.81L808.747 1358.81C790.074 1358.81 775 1343.69 775 1324.97L775 1322.26C775 1317.53 778.825 1313.69 783.549 1313.69L800.535 1313.69C805.373 1313.69 809.647 1310.42 810.772 1305.68L811.785 1301.62C816.621 1282.22 834.057 1268.57 853.969 1268.57L875.792 1268.57C882.316 1268.57 888.278 1272.63 890.64 1278.72L904.702 1313.92C904.937 1314.5 905.186 1315.15 905.456 1315.86 908.279 1323.25 913.344 1336.51 928.437 1334.56L1005.16 1325.08C1021.65 1323.8 1036.7 1331.13 1046.12 1343.16 1059.38 1336.3 1068.29 1322.1 1067.48 1305.91 1066.35 1285.72 1050.04 1269.48 1030.02 1268.57 1013.93 1267.78 999.869 1276.69 993.119 1290 989.182 1297.67 981.082 1302.41 972.533 1302.41L969.609 1302.41C967.921 1302.41 966.571 1300.95 966.796 1299.25Z" fill="#C55A11" fill-rule="evenodd"/><path d="M887 1438 887 1415.11 971.66 1415C981.293 1415 989 1422.9 989 1432.51 981.633 1436.05 973.247 1438 964.52 1438L887 1438Z" fill="#FFDEA7" fill-rule="evenodd"/><path d="M831 1317.59C831 1320.51 833.42 1323 836.5 1323 839.58 1323 842 1320.51 842 1317.59L842 1311.41C842 1308.38 839.58 1306 836.5 1306 833.42 1306 831 1308.38 831 1311.41L831 1317.59Z" fill="#212121" fill-rule="evenodd"/><path d="M783.25 1331 788.75 1331C793.26 1331 797 1327.15 797 1322.5 797 1317.85 793.26 1314 788.75 1314L783.25 1314C778.74 1314 775 1317.85 775 1322.5 775 1327.15 778.74 1331 783.25 1331Z" fill="#212121" fill-rule="evenodd"/><path d="M854 1269 893.515 1269C901.618 1269 907.611 1276.73 905.614 1284.68L898.954 1311.45C897.067 1319.4 889.963 1325 881.749 1325 873.646 1325 866.542 1319.4 864.545 1311.45L854 1269Z" fill="#843C0C" fill-rule="evenodd"/><g clip-path="url(#clip33)" filter="url(#fx6)" transform="matrix(3.984 0 0 4.00787 1290 1141)"><g clip-path="url(#clip34)" transform="translate(5.68434e-14 0)"><path d="M19.8898 24.5906C19.8898 21.9289 22.0604 19.7712 24.738 19.7712L100.383 19.7712C103.061 19.7712 105.231 21.9289 105.231 24.5906L105.231 102.529C105.231 105.191 103.061 107.349 100.383 107.349L24.738 107.349C22.0604 107.349 19.8898 105.191 19.8898 102.529Z" fill="#FFFFFF" fill-rule="evenodd" fill-opacity="0.890196"/></g></g><path d="M1366 1236.32C1366 1225.65 1374.65 1217 1385.32 1217L1686.68 1217C1697.35 1217 1706 1225.65 1706 1236.32L1706 1548.68C1706 1559.35 1697.35 1568 1686.68 1568L1385.32 1568C1374.65 1568 1366 1559.35 1366 1548.68Z" fill="#FFFFFF" fill-rule="evenodd" fill-opacity="0.890196"/><g clip-path="url(#clip35)"><g clip-path="url(#clip36)"><g clip-path="url(#clip37)"><path d="M133.634 269.063 152.738 269.063C154.89 269.063 156.505 267 155.967 265.027L139.016 193.725 112.109 193.725 129.24 265.654C129.778 267.628 131.572 269.063 133.634 269.063Z" fill="#D3883E" transform="matrix(-1 0 0 1 1680 1244)"/><path d="M186.371 269.063 167.267 269.063C165.115 269.063 163.5 267 164.038 265.027L180.989 193.725 207.896 193.725 190.765 265.654C190.227 267.628 188.433 269.063 186.371 269.063Z" fill="#D3883E" transform="matrix(-1 0 0 1 1680 1244)"/><path d="M192.021 28.5204C196.774 27.4441 201.797 26.8163 206.909 26.906 240.811 27.2647 268.614 54.8885 269.063 88.7904 269.308 107.988 260.952 125.25 247.6 136.943 249.881 143.183 251.125 149.923 251.125 156.953L251.125 197.671C251.125 203.322 249.959 208.972 247.627 214.174L225.026 267C224.578 268.255 223.322 269.063 221.977 269.063L202.425 269.063C200.003 269.063 198.389 266.551 199.465 264.399L211.124 237.223C212.201 234.802 211.663 232.022 209.779 230.138L188.164 208.523C186.729 207.088 149.61 185.738 147.547 185.738L116.683 206.281 116.683 265.654C116.683 267.538 115.159 269.063 113.275 269.063L93.0956 269.063C91.2122 269.063 89.6875 267.538 89.6875 265.744L89.6875 206.102 71.9848 170.424 53.9919 152.469C34.0813 152.469 17.9375 136.325 17.9375 116.414L17.9375 114.441C17.9375 110.674 20.9869 107.625 24.7538 107.625 26.9959 107.625 28.9691 106.011 29.4175 103.768 32.8256 86.2795 46.0097 69.3285 62.7813 65.472L62.7813 41.1667C62.7813 37.7585 66.9966 36.2338 69.2388 38.7451L98.9289 71.8072 96.5728 80.5986 112.464 89.6349C113.825 92.5082 114.823 95.4876 115.54 98.659L109.754 107.59 116.683 116.692 116.683 120.361C116.683 124.397 120.899 127.087 124.576 125.293L125.649 124.772 135.2 128.304 143.4 116.138 152.633 111.647 161.371 114.447 170.122 103.228C173.086 101.973 176.157 100.974 179.291 100.233L187.88 110.873 196.867 98.7944C213.729 99.9478 228.62 108.271 238.516 120.738 245.802 113.167 250.468 103.058 251.035 91.9297 252.381 66.1891 231.753 44.8435 206.281 44.8435 202.873 44.8435 199.465 45.2022 196.236 46.0094 192.559 46.8166 188.792 45.2919 186.729 42.1529 186.729 42.108 186.707 42.0856 186.685 42.0632 186.662 42.0408 186.64 42.0183 186.64 41.9735 183.232 36.8613 186.012 29.8657 192.021 28.5204Z" fill="#F3AD61" transform="matrix(-1 0 0 1 1680 1244)"/><path d="M105.473 79.1941 98.8356 71.75 89.6875 71.75C84.7547 71.75 80.7188 75.7859 80.7188 80.7188 80.7188 85.6516 84.7547 89.6875 89.6875 89.6875L112.53 89.6875C110.736 85.8309 108.253 82.3331 105.473 79.1941Z" fill="#D3883E" transform="matrix(-1 0 0 1 1680 1244)"/><path d="M179.106 100.271C183.59 99.1944 188.164 98.6563 192.828 98.6563 194.173 98.6563 195.608 98.7459 197.043 98.8356L197.043 128.971C197.043 133.903 193.008 137.939 188.075 137.939 183.142 137.939 179.106 133.903 179.106 128.971L179.106 100.271Z" fill="#D3883E" transform="matrix(-1 0 0 1 1680 1244)"/><path d="M167.267 104.486 152.289 111.751 152.289 136.415C152.289 141.348 156.325 145.383 161.258 145.383 166.191 145.383 170.227 141.348 170.227 136.415L170.227 103.23C169.24 103.589 168.254 104.038 167.267 104.486Z" fill="#D3883E" transform="matrix(-1 0 0 1 1680 1244)"/><path d="M134.531 152.827C139.464 152.827 143.5 148.791 143.5 143.858L143.5 116.055 125.563 124.754 125.563 143.858C125.563 148.791 129.598 152.827 134.531 152.827Z" fill="#D3883E" transform="matrix(-1 0 0 1 1680 1244)"/><path d="M115.518 98.6563C116.235 101.795 116.594 105.024 116.594 108.432L116.594 116.594 103.141 116.594C98.2078 116.594 94.1719 112.558 94.1719 107.625 94.1719 102.692 98.2078 98.6563 103.141 98.6563L115.518 98.6563Z" fill="#D3883E" transform="matrix(-1 0 0 1 1680 1244)"/><path d="M78.2509 160.563C75.9566 155.769 71.0646 152.469 65.3824 152.469L53.9921 152.469 53.9921 166.729C53.9921 187.268 69.5977 204.129 89.6875 206.102L89.6875 180.182C89.6875 180.182 89.6875 180.182 89.6875 180.182L78.2509 160.563Z" fill="#FFDEA7" transform="matrix(-1 0 0 1 1680 1244)"/><path d="M149.24 180.72 116.594 180.72 116.594 206.281 182.604 206.281C184.667 206.281 186.64 207.088 188.075 208.523L174.622 192.559C168.343 185.025 159.016 180.72 149.24 180.72Z" fill="#FFDEA7" transform="matrix(-1 0 0 1 1680 1244)"/><path d="M53.9921 103.922C53.9921 101.055 55.9896 98.8347 58.3867 98.8347 60.8636 98.8347 62.7813 101.147 62.7813 103.922L62.7813 111.507C62.7813 114.282 60.8636 116.501 58.3867 116.594 55.9097 116.594 53.9921 114.282 53.9921 111.507L53.9921 103.922Z" fill="#212121" transform="matrix(-1 0 0 1 1680 1244)"/><path d="M30.8525 107.625C33.005 107.625 34.1709 110.047 32.9153 111.751L20.1797 128.881C18.7447 125.024 17.9375 120.809 17.9375 116.414L17.9375 114.441C17.9375 110.674 20.9869 107.625 24.7538 107.625L30.8525 107.625Z" fill="#212121" transform="matrix(-1 0 0 1 1680 1244)"/></g></g></g></g></svg>