<svg width="1180" height="502" xmlns="http://www.w3.org/2000/svg" xmlns:xlink="http://www.w3.org/1999/xlink" xml:space="preserve" overflow="hidden"><defs><filter id="fx0" x="-10%" y="-10%" width="120%" height="120%" filterUnits="userSpaceOnUse" primitiveUnits="userSpaceOnUse"><feComponentTransfer color-interpolation-filters="sRGB"><feFuncR type="discrete" tableValues="0 0"/><feFuncG type="discrete" tableValues="0 0"/><feFuncB type="discrete" tableValues="0 0"/><feFuncA type="linear" slope="0.278431" intercept="0"/></feComponentTransfer><feGaussianBlur stdDeviation="6.48756 6.50596"/></filter><clipPath id="clip1"><rect x="2271" y="885" width="1180" height="502"/></clipPath><clipPath id="clip2"><rect x="-6.49451" y="-6.51292" width="306.99" height="136.02"/></clipPath><clipPath id="clip3"><rect x="0" y="0" width="295" height="126"/></clipPath><linearGradient x1="2919.69" y1="906.792" x2="2786.08" y2="1350.57" gradientUnits="userSpaceOnUse" spreadMethod="reflect" id="fill4"><stop offset="0" stop-color="#50E6FF"/><stop offset="0.00510204" stop-color="#4FE5FE"/><stop offset="0.0102041" stop-color="#4FE5FE"/><stop offset="0.0153061" stop-color="#4FE5FE"/><stop offset="0.0204082" stop-color="#4FE5FE"/><stop offset="0.0255102" stop-color="#4FE5FE"/><stop offset="0.0306122" stop-color="#4FE5FE"/><stop offset="0.0357143" stop-color="#4FE5FE"/><stop offset="0.0408163" stop-color="#4FE5FE"/><stop offset="0.0459184" stop-color="#4FE5FE"/><stop offset="0.0510204" stop-color="#4FE5FE"/><stop offset="0.0561224" stop-color="#4FE5FE"/><stop offset="0.0612245" stop-color="#4FE4FE"/><stop offset="0.0663265" stop-color="#4FE4FE"/><stop offset="0.0714286" stop-color="#4FE4FE"/><stop offset="0.0765306" stop-color="#4FE4FE"/><stop offset="0.0816327" stop-color="#4FE4FE"/><stop offset="0.0867347" stop-color="#4FE3FD"/><stop offset="0.0918367" stop-color="#4FE3FD"/><stop offset="0.0969388" stop-color="#4FE3FD"/><stop offset="0.102041" stop-color="#4FE3FD"/><stop offset="0.107143" stop-color="#4FE3FD"/><stop offset="0.112245" stop-color="#4FE2FD"/><stop offset="0.117347" stop-color="#4FE2FD"/><stop offset="0.122449" stop-color="#4FE2FC"/><stop offset="0.127551" stop-color="#4EE1FC"/><stop offset="0.132653" stop-color="#4EE1FC"/><stop offset="0.137755" stop-color="#4EE1FC"/><stop offset="0.142857" stop-color="#4EE0FC"/><stop offset="0.147959" stop-color="#4EE0FB"/><stop offset="0.153061" stop-color="#4EE0FB"/><stop offset="0.158163" stop-color="#4EDFFB"/><stop offset="0.163265" stop-color="#4EDFFB"/><stop offset="0.168367" stop-color="#4EDFFB"/><stop offset="0.173469" stop-color="#4EDEFA"/><stop offset="0.178571" stop-color="#4EDEFA"/><stop offset="0.183673" stop-color="#4DDDFA"/><stop offset="0.188776" stop-color="#4DDDFA"/><stop offset="0.193878" stop-color="#4DDCF9"/><stop offset="0.19898" stop-color="#4DDCF9"/><stop offset="0.204082" stop-color="#4DDBF9"/><stop offset="0.209184" stop-color="#4DDBF9"/><stop offset="0.214286" stop-color="#4DDBF8"/><stop offset="0.219388" stop-color="#4DDAF8"/><stop offset="0.22449" stop-color="#4DDAF8"/><stop offset="0.229592" stop-color="#4CD9F8"/><stop offset="0.234694" stop-color="#4CD8F7"/><stop offset="0.239796" stop-color="#4CD8F7"/><stop offset="0.244898" stop-color="#4CD7F7"/><stop offset="0.25" stop-color="#4CD7F6"/><stop offset="0.255102" stop-color="#4CD6F6"/><stop offset="0.260204" stop-color="#4CD6F6"/><stop offset="0.265306" stop-color="#4CD5F5"/><stop offset="0.270408" stop-color="#4BD5F5"/><stop offset="0.27551" stop-color="#4BD4F5"/><stop offset="0.280612" stop-color="#4BD3F4"/><stop offset="0.285714" stop-color="#4BD3F4"/><stop offset="0.290816" stop-color="#4BD2F4"/><stop offset="0.295918" stop-color="#4BD1F3"/><stop offset="0.30102" stop-color="#4AD1F3"/><stop offset="0.306122" stop-color="#4AD0F3"/><stop offset="0.311224" stop-color="#4ACFF2"/><stop offset="0.316327" stop-color="#4ACFF2"/><stop offset="0.321429" stop-color="#4ACEF2"/><stop offset="0.326531" stop-color="#4ACDF1"/><stop offset="0.331633" stop-color="#49CDF1"/><stop offset="0.336735" stop-color="#49CCF0"/><stop offset="0.341837" stop-color="#49CBF0"/><stop offset="0.346939" stop-color="#49CAF0"/><stop offset="0.352041" stop-color="#49CAEF"/><stop offset="0.357143" stop-color="#49C9EF"/><stop offset="0.362245" stop-color="#48C8EE"/><stop offset="0.367347" stop-color="#48C7EE"/><stop offset="0.372449" stop-color="#48C7ED"/><stop offset="0.377551" stop-color="#48C6ED"/><stop offset="0.382653" stop-color="#48C5ED"/><stop offset="0.387755" stop-color="#47C4EC"/><stop offset="0.392857" stop-color="#47C3EC"/><stop offset="0.397959" stop-color="#47C2EB"/><stop offset="0.403061" stop-color="#47C2EB"/><stop offset="0.408163" stop-color="#47C1EA"/><stop offset="0.413265" stop-color="#46C0EA"/><stop offset="0.418367" stop-color="#46BFE9"/><stop offset="0.423469" stop-color="#46BEE9"/><stop offset="0.428571" stop-color="#46BDE8"/><stop offset="0.433673" stop-color="#45BCE8"/><stop offset="0.438776" stop-color="#45BBE7"/><stop offset="0.443878" stop-color="#45BBE7"/><stop offset="0.44898" stop-color="#45BAE6"/><stop offset="0.454082" stop-color="#45B9E6"/><stop offset="0.459184" stop-color="#44B8E5"/><stop offset="0.464286" stop-color="#44B7E5"/><stop offset="0.469388" stop-color="#44B6E4"/><stop offset="0.47449" stop-color="#44B5E4"/><stop offset="0.479592" stop-color="#43B4E3"/><stop offset="0.484694" stop-color="#43B3E2"/><stop offset="0.489796" stop-color="#43B2E2"/><stop offset="0.494898" stop-color="#43B1E1"/><stop offset="0.5" stop-color="#42B0E1"/><stop offset="0.505102" stop-color="#42AFE0"/><stop offset="0.510204" stop-color="#42AEE0"/><stop offset="0.515306" stop-color="#42ADDF"/><stop offset="0.520408" stop-color="#41ACDE"/><stop offset="0.52551" stop-color="#41ABDE"/><stop offset="0.530612" stop-color="#41A9DD"/><stop offset="0.535714" stop-color="#41A8DD"/><stop offset="0.540816" stop-color="#40A7DC"/><stop offset="0.545918" stop-color="#40A6DB"/><stop offset="0.55102" stop-color="#40A5DB"/><stop offset="0.556122" stop-color="#40A4DA"/><stop offset="0.561224" stop-color="#3FA3DA"/><stop offset="0.566327" stop-color="#3FA2D9"/><stop offset="0.571429" stop-color="#3FA1D8"/><stop offset="0.576531" stop-color="#3E9FD8"/><stop offset="0.581633" stop-color="#3E9ED7"/><stop offset="0.586735" stop-color="#3E9DD6"/><stop offset="0.591837" stop-color="#3E9CD6"/><stop offset="0.596939" stop-color="#3D9BD5"/><stop offset="0.602041" stop-color="#3D99D4"/><stop offset="0.607143" stop-color="#3D98D4"/><stop offset="0.612245" stop-color="#3C97D3"/><stop offset="0.617347" stop-color="#3C96D2"/><stop offset="0.622449" stop-color="#3C95D2"/><stop offset="0.627551" stop-color="#3B93D1"/><stop offset="0.632653" stop-color="#3B92D0"/><stop offset="0.637755" stop-color="#3B91D0"/><stop offset="0.642857" stop-color="#3B8FCF"/><stop offset="0.647959" stop-color="#3A8ECE"/><stop offset="0.653061" stop-color="#3A8DCD"/><stop offset="0.658163" stop-color="#3A8CCD"/><stop offset="0.663265" stop-color="#398ACC"/><stop offset="0.668367" stop-color="#3989CB"/><stop offset="0.673469" stop-color="#3988CB"/><stop offset="0.678571" stop-color="#3886CA"/><stop offset="0.683673" stop-color="#3885C9"/><stop offset="0.688776" stop-color="#3884C8"/><stop offset="0.693878" stop-color="#3782C8"/><stop offset="0.69898" stop-color="#3781C7"/><stop offset="0.704082" stop-color="#377FC6"/><stop offset="0.709184" stop-color="#367EC5"/><stop offset="0.714286" stop-color="#367DC4"/><stop offset="0.719388" stop-color="#367BC4"/><stop offset="0.72449" stop-color="#357AC3"/><stop offset="0.729592" stop-color="#3578C2"/><stop offset="0.734694" stop-color="#3577C1"/><stop offset="0.739796" stop-color="#3476C1"/><stop offset="0.744898" stop-color="#3474C0"/><stop offset="0.75" stop-color="#3473BF"/><stop offset="0.755102" stop-color="#3371BE"/><stop offset="0.760204" stop-color="#3370BD"/><stop offset="0.765306" stop-color="#326EBC"/><stop offset="0.770408" stop-color="#326DBC"/><stop offset="0.77551" stop-color="#326BBB"/><stop offset="0.780612" stop-color="#316ABA"/><stop offset="0.785714" stop-color="#3168B9"/><stop offset="0.790816" stop-color="#3167B8"/><stop offset="0.795918" stop-color="#3065B7"/><stop offset="0.80102" stop-color="#3064B7"/><stop offset="0.806122" stop-color="#2F62B6"/><stop offset="0.811224" stop-color="#2F60B5"/><stop offset="0.816327" stop-color="#2F5FB4"/><stop offset="0.821429" stop-color="#2E5DB3"/><stop offset="0.826531" stop-color="#2E5CB2"/><stop offset="0.831633" stop-color="#2E5AB1"/><stop offset="0.836735" stop-color="#2D58B0"/><stop offset="0.841837" stop-color="#2D57B0"/><stop offset="0.846939" stop-color="#2C55AF"/><stop offset="0.852041" stop-color="#2C54AE"/><stop offset="0.857143" stop-color="#2C52AD"/><stop offset="0.862245" stop-color="#2B50AC"/><stop offset="0.867347" stop-color="#2B4FAB"/><stop offset="0.872449" stop-color="#2A4DAA"/><stop offset="0.877551" stop-color="#2A4BA9"/><stop offset="0.882653" stop-color="#2A4AA8"/><stop offset="0.887755" stop-color="#2948A7"/><stop offset="0.892857" stop-color="#2946A6"/><stop offset="0.897959" stop-color="#2845A5"/><stop offset="0.903061" stop-color="#2843A4"/><stop offset="0.908163" stop-color="#2741A4"/><stop offset="0.913265" stop-color="#273FA3"/><stop offset="0.918367" stop-color="#273EA2"/><stop offset="0.923469" stop-color="#263CA1"/><stop offset="0.928571" stop-color="#263AA0"/><stop offset="0.933673" stop-color="#25389F"/><stop offset="0.938776" stop-color="#25379E"/><stop offset="0.943878" stop-color="#24359D"/><stop offset="0.94898" stop-color="#24339C"/><stop offset="0.954082" stop-color="#24319B"/><stop offset="0.959184" stop-color="#232F9A"/><stop offset="0.964286" stop-color="#232D99"/><stop offset="0.969388" stop-color="#222C98"/><stop offset="0.97449" stop-color="#222A97"/><stop offset="0.979592" stop-color="#212896"/><stop offset="0.984694" stop-color="#212695"/><stop offset="0.989796" stop-color="#202494"/><stop offset="0.994898" stop-color="#202293"/><stop offset="1" stop-color="#202192"/></linearGradient></defs><g clip-path="url(#clip1)" transform="translate(-2271 -885)"><g clip-path="url(#clip2)" filter="url(#fx0)" transform="matrix(4.00339 0 0 3.99206 2270 884)"><g clip-path="url(#clip3)"><path d="M19.7935 24.7593C19.7935 22.0478 21.9854 19.8496 24.6892 19.8496L270.431 19.8496C273.135 19.8496 275.327 22.0478 275.327 24.7593L275.327 101.361C275.327 104.073 273.135 106.271 270.431 106.271L24.6892 106.271C21.9854 106.271 19.7935 104.073 19.7935 101.361Z" fill="#FFFFFF" fill-rule="evenodd" fill-opacity="0.890196"/></g></g><path d="M2346 979.6C2346 968.775 2354.78 960 2365.6 960L3349.4 960C3360.22 960 3369 968.775 3369 979.6L3369 1285.4C3369 1296.22 3360.22 1305 3349.4 1305L2365.6 1305C2354.78 1305 2346 1296.22 2346 1285.4Z" fill="#FFFFFF" fill-rule="evenodd" fill-opacity="0.890196"/><path d="M2624 1130.99C2613.48 1130.99 2608.22 1138.19 2608.22 1152.59 2608.22 1167.78 2613.54 1175.38 2624.19 1175.38 2634.58 1175.38 2639.78 1167.45 2639.78 1151.61 2639.78 1137.86 2634.52 1130.99 2624 1130.99ZM3116.97 1125.67C3113.48 1125.67 3110.55 1127.26 3108.19 1130.45 3105.82 1133.64 3104.44 1137.86 3104.05 1143.13L3129.49 1143.13C3129.49 1131.49 3125.32 1125.67 3116.97 1125.67ZM3117.16 1100.22C3127.62 1100.22 3136.56 1102.26 3143.99 1106.34 3151.42 1110.41 3157.06 1116.13 3160.91 1123.5 3164.75 1130.86 3166.68 1139.48 3166.68 1149.34L3166.68 1165.12 3104.24 1165.12C3104.97 1169.46 3107.46 1172.86 3111.74 1175.33 3116.01 1177.79 3121.67 1179.03 3128.7 1179.03 3138.5 1179.03 3147.77 1177.15 3156.52 1173.41L3156.52 1200.04C3146.33 1204.11 3133.96 1206.15 3119.43 1206.15 3101.81 1206.15 3088.1 1201.65 3078.3 1192.64 3068.5 1183.63 3063.61 1171.24 3063.61 1155.45 3063.61 1144.6 3065.76 1135.04 3070.07 1126.75 3074.37 1118.47 3080.75 1111.97 3089.2 1107.27 3097.65 1102.57 3106.97 1100.22 3117.16 1100.22ZM2744.99 1100.22C2753.8 1100.22 2763.14 1101.5 2773.01 1104.07L2773.01 1132.37C2768.86 1130.6 2764.33 1129.12 2759.39 1127.94 2754.46 1126.75 2750.32 1126.16 2746.97 1126.16 2744.2 1126.16 2742 1126.62 2740.36 1127.54 2738.71 1128.46 2737.89 1129.74 2737.89 1131.39 2737.89 1133.29 2738.78 1134.84 2740.55 1136.02 2742.33 1137.21 2745.88 1138.62 2751.21 1140.27 2761.53 1143.29 2768.93 1147.17 2773.4 1151.9 2777.87 1156.64 2780.11 1162.72 2780.11 1170.15 2780.11 1181.59 2775.75 1190.45 2767.04 1196.73 2758.33 1203.01 2746.18 1206.15 2730.59 1206.15 2726.06 1206.15 2720.45 1205.69 2713.78 1204.77 2707.1 1203.85 2701.66 1202.73 2697.45 1201.42L2697.45 1171.93C2709.88 1177.45 2720.27 1180.21 2728.62 1180.21 2736.84 1180.21 2740.95 1178.07 2740.95 1173.8 2740.95 1172.02 2740 1170.56 2738.09 1169.41 2736.18 1168.26 2731.18 1166.34 2723.1 1163.64 2714.15 1160.81 2707.64 1157.07 2703.57 1152.4 2699.49 1147.73 2697.45 1141.65 2697.45 1134.15 2697.45 1123.69 2701.61 1115.43 2709.93 1109.34 2718.25 1103.26 2729.94 1100.22 2744.99 1100.22ZM2624 1100.22C2635.96 1100.22 2646.34 1102.42 2655.11 1106.83 2663.89 1111.23 2670.63 1117.35 2675.33 1125.17 2680.04 1133 2682.39 1141.74 2682.39 1151.41 2682.39 1168.44 2677.24 1181.82 2666.95 1191.55 2656.66 1201.29 2642.28 1206.15 2623.8 1206.15 2605.45 1206.15 2591.17 1201.4 2580.94 1191.9 2570.72 1182.4 2565.61 1169.3 2565.61 1152.59 2565.61 1141.88 2568.01 1132.57 2572.81 1124.68 2577.61 1116.79 2584.44 1110.74 2593.32 1106.53 2602.2 1102.32 2612.42 1100.22 2624 1100.22ZM2981.5 1092.82 2981.5 1127.74 2991.07 1127.74C3003.3 1127.74 3009.41 1121.95 3009.41 1110.38 3009.41 1104.59 3007.74 1100.22 3004.38 1097.26 3001.03 1094.3 2996.1 1092.82 2989.59 1092.82ZM3231.15 1071.42 3231.15 1102.69 3252.16 1102.69 3252.16 1131.78 3231.15 1131.78 3231.15 1162.06C3231.15 1170.94 3234.67 1175.38 3241.7 1175.38 3244.99 1175.38 3248.48 1174.66 3252.16 1173.21L3252.16 1202.31C3250.25 1203.23 3247.13 1204.1 3242.79 1204.92 3238.45 1205.74 3233.22 1206.15 3227.11 1206.15 3215.4 1206.15 3206.24 1202.93 3199.64 1196.49 3193.03 1190.04 3189.72 1180.87 3189.72 1168.97L3189.72 1131.78 3173.84 1131.78 3173.84 1102.69 3189.72 1102.69 3189.72 1082.86ZM2845.15 1071.42 2845.15 1102.69 2866.16 1102.69 2866.16 1131.78 2845.15 1131.78 2845.15 1162.06C2845.15 1170.94 2848.67 1175.38 2855.7 1175.38 2858.99 1175.38 2862.48 1174.66 2866.16 1173.21L2866.16 1202.31C2864.25 1203.23 2861.13 1204.1 2856.79 1204.92 2852.45 1205.74 2847.22 1206.15 2841.11 1206.15 2829.4 1206.15 2820.24 1202.93 2813.64 1196.49 2807.03 1190.04 2803.72 1180.87 2803.72 1168.97L2803.72 1131.78 2787.84 1131.78 2787.84 1102.69 2803.72 1102.69 2803.72 1082.86ZM2938.89 1062.25 2996.89 1062.25C3016.81 1062.25 3031.39 1066.03 3040.63 1073.59 3049.87 1081.15 3054.49 1092.92 3054.49 1108.9 3054.49 1118.57 3052.04 1127.15 3047.14 1134.64 3042.24 1142.14 3035.26 1147.94 3026.18 1152.05 3017.11 1156.16 3006.55 1158.22 2994.52 1158.22L2981.5 1158.22 2981.5 1203.69 2938.89 1203.69ZM2464.89 1062.25 2507.5 1062.25 2507.5 1170.35 2556.22 1170.35 2556.22 1203.69 2464.89 1203.69Z" fill="url(#fill4)" fill-rule="evenodd"/><text fill="#000000" fill-opacity="0" font-family="Arial,Arial_MSFontService,sans-serif" font-size="143.905" x="2464.89" y="1188.16">Lost Pet</text><path d="M2566 1158.5C2566 1189.7 2591.3 1215 2622.5 1215 2653.7 1215 2679 1189.7 2679 1158.5 2679 1127.3 2653.7 1102 2622.5 1102 2591.3 1102 2566 1127.3 2566 1158.5Z" fill="#43B0E1" fill-rule="evenodd"/><path d="M2561 1157.99C2561 1192.23 2588.66 1219.99 2622.77 1219.99 2635.66 1219.99 2647.63 1216.02 2657.53 1209.25 2655.99 1216.09 2657.87 1223.55 2663.18 1228.88L2681.05 1246.81C2689.27 1255.06 2702.61 1255.06 2710.83 1246.81 2719.06 1238.56 2719.06 1225.18 2710.83 1216.92L2692.96 1198.99C2687.7 1193.71 2680.34 1191.81 2673.57 1193.29 2680.49 1183.27 2684.55 1171.11 2684.55 1157.99 2684.55 1123.76 2656.89 1096 2622.77 1096 2588.66 1096 2561 1123.76 2561 1157.99ZM2673.32 1157.99C2673.32 1186.01 2650.69 1208.71 2622.77 1208.71 2594.86 1208.71 2572.23 1186.01 2572.23 1157.99 2572.23 1129.98 2594.86 1107.27 2622.77 1107.27 2650.69 1107.27 2673.32 1129.98 2673.32 1157.99Z" fill="#533566" fill-rule="evenodd"/><path d="M2653.03 1128.33C2656.23 1133.65 2655.45 1139.83 2651.29 1142.13 2647.14 1144.44 2641.17 1141.99 2637.97 1136.67 2634.77 1131.35 2635.55 1125.17 2639.71 1122.87 2643.86 1120.56 2649.83 1123.01 2653.03 1128.33Z" fill="#FFFFFF" fill-rule="evenodd"/></g></svg>